<svg width="135" height="100" viewBox="0 0 135 100" fill="none" xmlns="http://www.w3.org/2000/svg">
<path d="M133.292 0.123585C132.35 -0.192744 131.308 0.111182 130.688 0.886494C130.688 0.967126 123.578 9.34665 101.776 16.1447H101.77C89.4403 19.7111 79.8005 29.3621 76.2554 41.712C74.6684 47.8587 75.2573 53.5587 77.7493 57.5904C73.8564 62.6455 71.1412 68.513 69.8147 74.7533C68.8105 73.0725 67.6636 71.4784 66.3992 69.9898C69.4118 65.3876 70.131 58.6703 68.2712 51.4137C65.4941 40.6151 56.2081 27.1055 38.4974 21.5925C12.6972 13.4796 4.35318 3.52453 4.27384 3.42608C3.65395 2.65077 2.61249 2.34684 1.67033 2.65696C0.721893 2.96708 0.0710318 3.83544 0.0338978 4.82786C0.0338978 6.5397 -1.28026 46.8865 12.4565 64.2289C20.5647 74.4568 31.4996 80.6154 42.2922 81.1251H43.7552C50.9646 81.1623 57.9197 78.4456 63.195 73.5333C70.8754 83.0603 72.3818 97.6541 72.4004 97.8415C72.512 99.0634 73.5348 100 74.7622 100H74.9854C75.6177 99.9442 76.1942 99.6403 76.6032 99.1565C77.0062 98.6727 77.1983 98.0462 77.1425 97.4135C76.5288 92.129 75.2581 86.9374 73.3488 81.963C73.4356 81.7646 73.4914 81.5599 73.5286 81.3428C73.5286 81.1815 74.7498 69.1796 81.0044 61.1915L80.9982 61.1977C85.5048 65.2852 91.3753 67.5491 97.4562 67.5491H98.727C108.044 67.1211 117.373 61.8303 124.322 53.0663C136.082 38.2362 135.003 3.8433 134.954 2.39836C134.947 1.36255 134.272 0.450723 133.292 0.128234L133.292 0.123585ZM42.5642 76.3589C33.0427 75.9123 23.5211 70.423 16.2372 61.2744C6.36841 48.8261 4.9551 21.8516 4.81259 10.3524C9.79648 14.3406 19.6838 20.6424 37.1525 26.0882C53.0217 31.0131 61.2594 42.9844 63.7144 52.5416C65.1092 57.9377 64.7806 62.9742 62.9705 66.4352C60.4042 64.2519 57.4101 62.6269 54.1804 61.6717C48.2604 52.1446 48.5767 48.206 49.3266 46.6803C49.6366 46.1096 49.7048 45.4336 49.5126 44.8133C49.3142 44.193 48.8741 43.6782 48.2914 43.3867C47.7025 43.1014 47.0268 43.0642 46.4193 43.2937C45.8056 43.5169 45.3159 43.9821 45.0556 44.5838C43.3074 48.1255 44.1381 53.0936 47.5475 59.6682C32.5524 54.3341 28.7584 45.3777 25.9193 38.6913C25.4606 37.6121 25.0329 36.5825 24.568 35.6397V35.6459C24.3138 35.0442 23.8303 34.5728 23.2228 34.3433C22.6215 34.1076 21.9458 34.1325 21.3569 34.4116C20.768 34.6907 20.3217 35.1931 20.1171 35.8133C19.9064 36.4274 19.9622 37.1034 20.2659 37.6741C20.6936 38.5611 21.109 39.5349 21.5367 40.5459C24.9027 48.4851 29.9796 60.4748 52.0532 65.9513V65.9575C54.9419 66.6894 57.626 68.0787 59.8948 70.0201C55.2085 74.3867 48.96 76.6692 42.5624 76.3591L42.5642 76.3589ZM120.558 50.0166C114.465 57.7014 106.418 62.3224 98.4651 62.7193H98.4713C93.2829 62.9922 88.1935 61.2183 84.3006 57.7759C86.1106 56.2811 88.2308 55.1957 90.5058 54.6002C109.438 49.8367 113.789 39.5964 116.671 32.7992C117.037 31.9247 117.384 31.1183 117.737 30.3554C118.301 29.1707 117.799 27.7442 116.609 27.1797C115.419 26.6153 113.999 27.1177 113.435 28.3086C113.057 29.1211 112.691 29.9894 112.295 30.9136C109.834 36.7687 106.833 43.8395 94.932 48.2813C97.5666 42.9595 98.1059 38.959 96.6429 35.9446C96.0664 34.76 94.6407 34.2699 93.4567 34.853C92.2727 35.4298 91.7829 36.8564 92.3594 38.0411C92.9607 39.2629 93.2025 42.4883 88.3426 50.2973L88.3488 50.3035C85.7515 51.0912 83.3276 52.3689 81.22 54.0808C79.8501 50.5205 79.7137 46.613 80.8233 42.9659C83.9413 32.2047 92.3718 23.8134 103.139 20.7362C117.421 16.3201 125.69 11.2091 130.116 7.7791C130.005 17.8271 128.672 39.7709 120.558 50.0188L120.558 50.0166Z" fill="#CAB13A"/>
</svg>
