<svg width="100" height="100" viewBox="0 0 100 100" fill="none" xmlns="http://www.w3.org/2000/svg">
<path d="M17.188 48.309V48.4379C17.1958 50.5668 18.0747 52.602 19.6255 54.0629C16.9653 57.3363 16.4302 61.8481 18.2466 65.6569C20.063 69.4616 23.9068 71.8835 28.1255 71.8757H40.6255V96.8757H59.3755V71.8757H78.1255C82.7857 71.8718 86.9302 68.9187 88.4535 64.5163C89.9769 60.1101 88.5434 55.2272 84.8832 52.3443C85.5746 51.1607 85.9379 49.8091 85.9379 48.4381C85.9379 47.274 85.6684 46.1256 85.1567 45.0826C87.9965 43.0474 89.4614 39.5943 88.9614 36.1373C88.4575 32.6803 86.0669 29.7896 82.7661 28.6451C82.2583 22.7193 77.6606 17.9691 71.7541 17.2701C71.0197 12.7271 67.1018 9.38339 62.5002 9.37559C61.9689 9.37559 61.4377 9.43028 60.9143 9.53184C58.6174 5.42244 54.2034 2.95374 49.5003 3.14514C44.7972 3.33655 40.598 6.15294 38.6413 10.4342C37.3249 9.74283 35.8601 9.37954 34.3757 9.37564C29.7702 9.38345 25.8484 12.7272 25.1179 17.2701C18.8171 18.0123 14.0709 23.3482 14.0629 29.6881C14.0629 30.0944 14.0863 30.5085 14.1254 30.9186C10.6801 32.8795 8.84018 36.7936 9.52768 40.692C10.2152 44.5943 13.2816 47.6412 17.1879 48.3092L17.188 48.309ZM56.25 93.75H43.75V71.875H56.25V93.75ZM16.422 33.281C17.1173 32.9997 17.5158 32.2654 17.3673 31.5271C16.8166 28.7732 17.5314 25.9177 19.3126 23.7459C21.0938 21.5701 23.754 20.3123 26.5626 20.3123C26.9767 20.3123 27.3751 20.1482 27.6681 19.8553C27.9611 19.5623 28.1252 19.1638 28.1252 18.7498C28.1252 15.2967 30.9221 12.4998 34.3752 12.4998C35.8635 12.5037 37.2971 13.0466 38.4143 14.0271C38.8244 14.3786 39.383 14.4958 39.8948 14.3356C40.4104 14.1755 40.8049 13.7653 40.9456 13.2458C41.969 9.37474 45.3401 6.58174 49.3362 6.29274C53.3323 6.00758 57.0667 8.29274 58.6331 11.9763C58.9534 12.7224 59.7893 13.1013 60.5628 12.8513C61.1839 12.6326 61.8401 12.5115 62.5003 12.4998C64.1565 12.4998 65.7464 13.1599 66.9183 14.3318C68.0902 15.5036 68.7503 17.0935 68.7503 18.7498C68.7503 19.1638 68.9143 19.5623 69.2073 19.8553C69.5003 20.1483 69.8987 20.3123 70.3128 20.3123C75.4769 20.3123 79.6683 24.4881 79.6878 29.6521C79.6878 29.6912 79.68 29.8084 79.68 29.8435C79.68 30.5857 80.2034 31.2263 80.93 31.3747C83.5706 31.906 85.5745 34.0778 85.8909 36.7536C86.2073 39.4294 84.7659 42.0075 82.3206 43.1403C81.8909 43.3434 81.5745 43.7341 81.4651 44.2028C81.3557 44.6677 81.469 45.1559 81.7659 45.5309C83.2464 47.3395 83.1409 49.9723 81.5159 51.652C81.18 52.0036 81.0276 52.488 81.1018 52.9684C81.1761 53.445 81.469 53.8629 81.8909 54.0973C85.012 55.8161 86.5706 59.4332 85.6839 62.8825C84.7972 66.3317 81.6878 68.7458 78.1253 68.7497H28.1253C24.8675 68.7536 21.9495 66.7302 20.8089 63.6794C19.6683 60.6286 20.5394 57.1872 23.0003 55.0505C23.387 54.7185 23.5823 54.2185 23.5276 53.7107C23.4769 53.2068 23.18 52.7576 22.7347 52.5076C21.2503 51.6912 20.3245 50.1326 20.3128 48.4373C20.3206 48.035 20.3792 47.6365 20.4885 47.2498C20.6135 46.7811 20.512 46.2811 20.2151 45.8982C19.9221 45.5154 19.4651 45.2888 18.9768 45.2888H18.9299H18.9338C18.8713 45.2849 18.8088 45.2927 18.7502 45.3123C15.7737 45.2888 13.2269 43.1717 12.6605 40.2498C12.0941 37.3279 13.6682 34.41 16.4221 33.281H16.422Z" fill="#CAB13A"/>
<path d="M51.562 21.875C51.9761 21.875 52.3745 22.0391 52.6675 22.332C52.9605 22.625 53.1246 23.0234 53.1246 23.4375H56.2496C56.2496 22.5743 56.9488 21.875 57.8121 21.875C58.6753 21.875 59.3746 22.5743 59.3746 23.4375H62.4996C62.5074 21.5859 61.4215 19.9023 59.7262 19.1523C58.0348 18.3984 56.0543 18.7187 54.6871 19.9687C53.3199 18.7187 51.3394 18.3984 49.648 19.1523C47.9527 19.9023 46.8668 21.5859 46.8746 23.4375H49.9996C49.9996 22.5743 50.6988 21.875 51.5621 21.875L51.562 21.875Z" fill="#CAB13A"/>
<path d="M32.812 26.5615C33.2261 26.5615 33.6245 26.7256 33.9175 27.0186C34.2105 27.3115 34.3746 27.71 34.3746 28.1241H37.4996C37.4996 27.2608 38.1988 26.5616 39.0621 26.5616C39.9253 26.5616 40.6246 27.2608 40.6246 28.1241H43.7496C43.7574 26.2725 42.6715 24.5889 40.9762 23.8389C39.2848 23.0849 37.3043 23.4053 35.9371 24.6553C34.5699 23.4053 32.5894 23.085 30.898 23.8389C29.2027 24.5889 28.1168 26.2725 28.1246 28.1241H31.2496C31.2496 27.2608 31.9488 26.5616 32.8121 26.5616L32.812 26.5615Z" fill="#CAB13A"/>
<path d="M37.5 32.8116H40.625C40.625 31.9483 41.3243 31.2491 42.1875 31.2491C43.0508 31.2491 43.75 31.9483 43.75 32.8116H46.875C46.875 31.9483 47.5743 31.2491 48.4375 31.2491C49.3008 31.2491 50 31.9483 50 32.8116H53.125C53.1329 30.96 52.0469 29.2764 50.3516 28.5264C48.6602 27.7724 46.6797 28.0928 45.3125 29.3428C43.9453 28.0928 41.9648 27.7725 40.2734 28.5264C38.5781 29.2764 37.4922 30.96 37.5 32.8116Z" fill="#CAB13A"/>
<path d="M65.625 37.5C65.625 36.6367 66.3243 35.9375 67.1875 35.9375C68.0508 35.9375 68.75 36.6367 68.75 37.5H71.875C71.875 36.6367 72.5743 35.9375 73.4375 35.9375C74.3008 35.9375 75 36.6367 75 37.5H78.125C78.1329 35.6484 77.0469 33.9648 75.3516 33.2148C73.6602 32.4609 71.6797 32.7812 70.3125 34.0312C68.9453 32.7812 66.9648 32.4609 65.2734 33.2148C63.5781 33.9648 62.4922 35.6484 62.5 37.5H65.625Z" fill="#CAB13A"/>
<path d="M32.812 42.1875C33.2261 42.1875 33.6245 42.3516 33.9175 42.6445C34.2105 42.9375 34.3746 43.3359 34.3746 43.75H37.4996C37.4996 42.8868 38.1988 42.1875 39.0621 42.1875C39.9253 42.1875 40.6246 42.8868 40.6246 43.75H43.7496C43.7574 41.8984 42.6715 40.2148 40.9762 39.4648C39.2848 38.7109 37.3043 39.0312 35.9371 40.2812C34.5699 39.0312 32.5894 38.7109 30.898 39.4648C29.2027 40.2148 28.1168 41.8984 28.1246 43.75H31.2496C31.2496 42.8868 31.9488 42.1875 32.8121 42.1875L32.812 42.1875Z" fill="#CAB13A"/>
<path d="M67.188 46.8749C66.0318 46.8788 64.9185 47.3124 64.063 48.0937C62.6958 46.8437 60.7153 46.5234 59.0239 47.2773C57.3286 48.0273 56.2427 49.7109 56.2505 51.5625H59.3755C59.3755 50.6992 60.0748 50 60.938 50C61.8013 50 62.5005 50.6992 62.5005 51.5625H65.6255C65.6255 50.6992 66.3248 50 67.188 50C68.0513 50 68.7505 50.6992 68.7505 51.5625H71.8755C71.8755 48.9727 69.7778 46.875 67.188 46.875V46.8749Z" fill="#CAB13A"/>
<path d="M50 51.5616C47.4102 51.5616 45.3125 53.6593 45.3125 56.2491H48.4375C48.4375 55.3858 49.1367 54.6866 50 54.6866C50.8633 54.6866 51.5625 55.3858 51.5625 56.2491H54.6875C54.6875 55.3858 55.3867 54.6866 56.25 54.6866C57.1133 54.6866 57.8125 55.3858 57.8125 56.2491H60.9375C60.9453 54.3975 59.8594 52.7139 58.1641 51.9639C56.4727 51.2099 54.4922 51.5303 53.125 52.7803C52.2695 51.999 51.1562 51.5655 50 51.5615V51.5616Z" fill="#CAB13A"/>
<path d="M24.1761 63.043C25.4105 64.7578 27.7894 65.625 31.2503 65.625H42.1883V62.5H31.2503C28.1409 62.5 27.0823 61.7109 26.7269 61.2383C26.4496 60.8281 26.3637 60.3203 26.4926 59.8438L25.0004 59.375L23.5199 58.8828C23.0863 60.2969 23.3285 61.832 24.1761 63.043L24.1761 63.043Z" fill="#CAB13A"/>
<path d="M45.312 62.5H48.437V65.625H45.312V62.5Z" fill="#CAB13A"/>
<path d="M23.2809 32.1133C22.6012 30.5664 22.6012 28.8008 23.2809 27.25L21.8747 26.5625L20.4763 25.8633C19.3591 28.2891 19.3591 31.086 20.4763 33.5117L23.2809 32.1133Z" fill="#CAB13A"/>
<path d="M76.062 57.7295C78.1245 58.4366 79.5581 60.3194 79.687 62.4991H82.812C82.812 56.753 77.2925 54.8428 77.0542 54.7646L76.062 57.7295Z" fill="#CAB13A"/>
<path d="M73.438 27.2344C73.7505 27.8438 73.7856 28.5586 73.5239 29.1953L76.4927 30.1836V30.1797C77.0318 28.7188 76.9185 27.0977 76.1802 25.7266C74.895 23.8204 72.9419 22.4649 70.7036 21.9219L69.9419 24.9531H69.9458C71.3364 25.289 72.5708 26.0937 73.438 27.2343L73.438 27.2344Z" fill="#CAB13A"/>
</svg>
