<svg width="100" height="100" viewBox="0 0 100 100" fill="none" xmlns="http://www.w3.org/2000/svg">
<g clip-path="url(#clip0)">
<path d="M26.5621 29.4445C30.3551 29.4445 33.773 27.1593 35.2223 23.6554C36.6754 20.1515 35.8708 16.1202 33.1911 13.4404C30.5114 10.7568 26.4763 9.95602 22.9761 11.4052C19.4722 12.8583 17.187 16.2763 17.187 20.0693C17.1948 25.2451 21.3862 29.4365 26.562 29.4443L26.5621 29.4445ZM26.5621 13.8195C29.0894 13.8195 31.3707 15.3429 32.3355 17.675C33.3043 20.0109 32.7691 22.6984 30.98 24.4875C29.1948 26.2766 26.5073 26.8117 24.1714 25.843C21.8355 24.8743 20.312 22.5969 20.312 20.0696C20.3159 16.6165 23.1128 13.8235 26.562 13.8196L26.5621 13.8195Z" fill="#CAB13A"/>
<path d="M28.906 18.0195C28.906 20.1015 25.781 20.1015 25.781 18.0195C25.781 15.9375 28.906 15.9375 28.906 18.0195Z" fill="#CAB13A"/>
<path d="M50.0001 27.3438C53.7931 27.3438 57.211 25.0586 58.6603 21.5547C60.1134 18.0547 59.3087 14.0195 56.6291 11.3397C53.9494 8.66003 49.9143 7.85533 46.4141 9.30853C42.9102 10.7577 40.625 14.1757 40.625 17.9687C40.6328 23.1445 44.8242 27.3359 50 27.3437L50.0001 27.3438ZM50.0001 11.7188C52.5274 11.7188 54.8087 13.2422 55.7735 15.5782C56.7422 17.9141 56.2071 20.6016 54.418 22.3868C52.6328 24.1759 49.9453 24.711 47.6094 23.7423C45.2735 22.7775 43.75 20.4962 43.75 17.9689C43.7539 14.5197 46.5508 11.7228 50 11.7189L50.0001 11.7188Z" fill="#CAB13A"/>
<path d="M52.344 15.9179C52.344 18.0038 49.219 18.0038 49.219 15.9179C49.219 13.8359 52.344 13.8359 52.344 15.9179Z" fill="#CAB13A"/>
<path d="M72.6561 28.1251C76.4491 28.1251 79.867 25.8399 81.3163 22.336C82.7694 18.836 81.9648 14.8008 79.2851 12.121C76.6054 9.44128 72.5703 8.63658 69.0701 10.0898C65.5662 11.539 63.281 14.957 63.281 18.75C63.2888 23.9258 67.4802 28.1172 72.656 28.125L72.6561 28.1251ZM72.6561 12.5001C75.1834 12.5001 77.4647 14.0235 78.4295 16.3595C79.3983 18.6954 78.8631 21.3829 77.074 23.1681C75.2888 24.9572 72.6013 25.4923 70.2654 24.5236C67.9295 23.5587 66.406 21.2775 66.406 18.7502C66.4099 15.301 69.2068 12.5041 72.656 12.5002L72.6561 12.5001Z" fill="#CAB13A"/>
<path d="M75 16.6992C75 18.7851 71.875 18.7851 71.875 16.6992C71.875 14.6172 75 14.6172 75 16.6992Z" fill="#CAB13A"/>
<path d="M18.7501 37.2578C18.7501 33.4648 16.4649 30.0469 12.961 28.5937C9.46098 27.1445 5.42578 27.9453 2.74598 30.6289C0.0662801 33.3086 -0.73842 37.3398 0.71478 40.8439C2.16398 44.3478 5.58198 46.633 9.37498 46.633C14.5508 46.6252 18.7422 42.4338 18.75 37.258L18.7501 37.2578ZM3.12508 37.2578C3.12508 34.7305 4.64848 32.4492 6.98448 31.4805C9.32038 30.5157 12.0079 31.0508 13.7931 32.836C15.5822 34.6251 16.1173 37.3126 15.1486 39.6485C14.1837 41.9844 11.9025 43.5079 9.37518 43.5079C5.92598 43.504 3.12908 40.7071 3.12518 37.2579L3.12508 37.2578Z" fill="#CAB13A"/>
<path d="M11.719 35.207C11.719 37.289 8.59399 37.289 8.59399 35.207C8.59399 33.125 11.719 33.125 11.719 35.207Z" fill="#CAB13A"/>
<path d="M22.656 40.6251C22.656 44.4181 24.9412 47.836 28.4451 49.2853C31.9451 50.7384 35.9803 49.9337 38.6601 47.2541C41.3398 44.5744 42.1445 40.5393 40.6913 37.0391C39.2421 33.5352 35.8241 31.25 32.0311 31.25C26.8553 31.2578 22.6639 35.4492 22.6561 40.625L22.656 40.6251ZM38.281 40.6251C38.281 43.1524 36.7576 45.4337 34.4216 46.3985C32.0857 47.3672 29.3982 46.8321 27.613 45.043C25.8239 43.2578 25.2888 40.5703 26.2575 38.2344C27.2223 35.8985 29.5036 34.375 32.0309 34.375C35.4801 34.3789 38.277 37.1758 38.2809 40.625L38.281 40.6251Z" fill="#CAB13A"/>
<path d="M34.375 38.5742C34.375 40.6601 31.25 40.6601 31.25 38.5742C31.25 36.4922 34.375 36.4922 34.375 38.5742Z" fill="#CAB13A"/>
<path d="M66.4061 39.0614C66.4061 35.2684 64.1209 31.8505 60.617 30.4012C57.117 28.9481 53.0818 29.7528 50.402 32.4324C47.7223 35.1121 46.9176 39.1472 48.3708 42.6474C49.82 46.1513 53.238 48.4365 57.031 48.4365C62.2068 48.4287 66.3982 44.2373 66.406 39.0615L66.4061 39.0614ZM50.7811 39.0614C50.7811 36.5341 52.3045 34.2528 54.6405 33.288C56.9764 32.3193 59.6639 32.8545 61.4491 34.6435C63.2382 36.4287 63.7733 39.1162 62.8046 41.4521C61.8397 43.788 59.5585 45.3115 57.0312 45.3115C53.582 45.3076 50.7851 42.5107 50.7812 39.0615L50.7811 39.0614Z" fill="#CAB13A"/>
<path d="M59.375 37.0117C59.375 39.0976 56.25 39.0976 56.25 37.0117C56.25 34.9297 59.375 34.9297 59.375 37.0117Z" fill="#CAB13A"/>
<path d="M72.656 39.8439C72.656 43.6369 74.9412 47.0547 78.4451 48.504C81.9451 49.9571 85.9803 49.1525 88.6601 46.4728C91.3398 43.7931 92.1445 39.758 90.6913 36.2578C89.2421 32.7539 85.8241 30.4688 82.0311 30.4688C76.8553 30.4766 72.6639 34.6679 72.6561 39.8437L72.656 39.8439ZM88.281 39.8439C88.281 42.3712 86.7576 44.6525 84.4216 45.6173C82.0857 46.586 79.3982 46.0508 77.613 44.2618C75.8239 42.4766 75.2888 39.7891 76.2575 37.4531C77.2223 35.1172 79.5036 33.5937 82.0309 33.5937C85.4801 33.5977 88.277 36.3945 88.2809 39.8437L88.281 39.8439Z" fill="#CAB13A"/>
<path d="M84.375 37.7929C84.375 39.8788 81.25 39.8788 81.25 37.7929C81.25 35.7109 84.375 35.7109 84.375 37.7929Z" fill="#CAB13A"/>
<path d="M27.3441 60.1562C27.3441 56.3632 25.0589 52.9453 21.555 51.496C18.055 50.0429 14.0198 50.8475 11.34 53.5272C8.66027 56.2069 7.85557 60.242 9.30877 63.7422C10.758 67.2461 14.176 69.5313 17.969 69.5313C23.1448 69.5235 27.3362 65.3321 27.344 60.1563L27.3441 60.1562ZM17.9691 66.4062C15.4418 66.4062 13.1605 64.8828 12.1957 62.5468C11.2269 60.2109 11.7621 57.5234 13.5512 55.7382C15.3364 53.9491 18.0239 53.414 20.3598 54.3827C22.6957 55.3475 24.2192 57.6288 24.2192 60.1561C24.2153 63.6053 21.4184 66.4022 17.9692 66.4061L17.9691 66.4062Z" fill="#CAB13A"/>
<path d="M20.312 58.1045C20.312 60.1904 17.187 60.1904 17.187 58.1045C17.187 56.0225 20.312 56.0225 20.312 58.1045Z" fill="#CAB13A"/>
<path d="M43.7502 50.7812C39.9572 50.7812 36.5393 53.0665 35.09 56.5704C33.6369 60.0704 34.4415 64.1056 37.1212 66.7854C39.8009 69.4651 43.836 70.2698 47.3362 68.8166C50.8401 67.3674 53.1253 63.9494 53.1253 60.1564C53.1175 54.9806 48.9261 50.7892 43.7503 50.7814L43.7502 50.7812ZM43.7502 66.4062C41.2229 66.4062 38.9416 64.8829 37.9768 62.5469C37.008 60.211 37.5432 57.5235 39.3323 55.7383C41.1175 53.9492 43.805 53.4141 46.1409 54.3828C48.4768 55.3476 50.0003 57.6289 50.0003 60.1562C49.9964 63.6054 47.1995 66.4023 43.7503 66.4062L43.7502 66.4062Z" fill="#CAB13A"/>
<path d="M46.094 58.1045C46.094 60.1904 42.969 60.1904 42.969 58.1045C42.969 56.0225 46.094 56.0225 46.094 58.1045Z" fill="#CAB13A"/>
<path d="M76.4221 60.6603C76.4221 56.8712 74.1369 53.4533 70.6369 52.0001C67.133 50.5509 63.0978 51.3517 60.4179 54.0313C57.7382 56.7149 56.9335 60.7461 58.3867 64.2503C59.8359 67.7542 63.2539 70.0355 67.0469 70.0394C72.2227 70.0316 76.418 65.8363 76.4219 60.6644L76.4221 60.6603ZM67.0471 66.9103V66.9142C64.5198 66.9142 62.2424 65.3908 61.2737 63.0548C60.3049 60.7189 60.8401 58.0314 62.6292 56.2423C64.4144 54.4571 67.1019 53.922 69.4378 54.8868C71.7737 55.8556 73.2972 58.1329 73.2972 60.6641V60.6602C73.2932 64.1133 70.4964 66.9063 67.0472 66.9141L67.0471 66.9103Z" fill="#CAB13A"/>
<path d="M69.3911 58.6133C69.3911 60.6953 66.2661 60.6953 66.2661 58.6133C66.2661 56.5313 69.3911 56.5313 69.3911 58.6133Z" fill="#CAB13A"/>
<path d="M90.6252 53.9062C86.8322 53.9062 83.4143 56.1915 81.965 59.6954C80.5119 63.1954 81.3165 67.2306 83.9962 69.9104C86.6759 72.5901 90.711 73.3948 94.2112 71.9416C97.7151 70.4924 100 67.0744 100 63.2814C99.9925 58.1056 95.8011 53.9142 90.6253 53.9064L90.6252 53.9062ZM90.6252 69.5312C88.0979 69.5312 85.8166 68.0079 84.8518 65.6719C83.883 63.336 84.4182 60.6485 86.2073 58.8633C87.9925 57.0742 90.68 56.5391 93.0159 57.5078C95.3518 58.4726 96.8753 60.7539 96.8753 63.2812C96.8714 66.7304 94.0745 69.5273 90.6253 69.5312L90.6252 69.5312Z" fill="#CAB13A"/>
<path d="M92.969 61.2295C92.969 63.3154 89.844 63.3154 89.844 61.2295C89.844 59.1475 92.969 59.1475 92.969 61.2295Z" fill="#CAB13A"/>
<path d="M53.1252 71.6328C49.3322 71.6328 45.9143 73.914 44.465 77.418C43.0119 80.9219 43.8165 84.9532 46.4962 87.637C49.1759 90.3167 53.211 91.1175 56.7112 89.6682C60.2151 88.219 62.5003 84.7971 62.5003 81.008C62.4925 75.8322 58.3011 71.6369 53.1253 71.633L53.1252 71.6328ZM53.1252 87.2578C50.5979 87.2578 48.3166 85.7344 47.3518 83.3984C46.383 81.0625 46.9182 78.375 48.7073 76.5859C50.4925 74.8007 53.18 74.2656 55.5159 75.2304C57.8518 76.1992 59.3753 78.4804 59.3753 81.0077C59.3714 84.4569 56.5745 87.2538 53.1253 87.2577L53.1252 87.2578Z" fill="#CAB13A"/>
<path d="M55.469 78.957C55.469 81.039 52.344 81.039 52.344 78.957C52.344 76.875 55.469 76.875 55.469 78.957Z" fill="#CAB13A"/>
<path d="M77.3442 72.6562C73.5512 72.6562 70.1333 74.9415 68.684 78.4454C67.2309 81.9454 68.0355 85.9806 70.7152 88.6604C73.3949 91.3401 77.43 92.1448 80.9302 90.6916C84.4341 89.2424 86.7193 85.8243 86.7193 82.0313C86.7115 76.8555 82.5201 72.6641 77.3443 72.6563L77.3442 72.6562ZM77.3442 88.2812C74.8169 88.2812 72.5356 86.7579 71.5708 84.4219C70.602 82.086 71.1372 79.3985 72.9263 77.6133C74.7115 75.8242 77.399 75.2891 79.7349 76.2578C82.0708 77.2226 83.5943 79.5039 83.5943 82.0312C83.5904 85.4804 80.7935 88.2773 77.3443 88.2812L77.3442 88.2812Z" fill="#CAB13A"/>
<path d="M79.688 79.9795C79.688 82.0654 76.563 82.0654 76.563 79.9795C76.563 77.8975 79.688 77.8975 79.688 79.9795Z" fill="#CAB13A"/>
<path d="M29.6882 71.875C25.8952 71.875 22.4773 74.1602 21.028 77.6641C19.5749 81.1641 20.3795 85.1993 23.0592 87.8791C25.7389 90.5588 29.774 91.3635 33.2742 89.9103C36.7781 88.4611 39.0633 85.0431 39.0633 81.2501C39.0554 76.0743 34.8641 71.8829 29.6883 71.8751L29.6882 71.875ZM29.6882 87.5C27.1609 87.5 24.8796 85.9766 23.9148 83.6406C22.946 81.3047 23.4812 78.6172 25.2703 76.832C27.0555 75.0429 29.743 74.5078 32.0789 75.4765C34.4148 76.4413 35.9383 78.7226 35.9383 81.2499C35.9343 84.6991 33.1375 87.496 29.6883 87.4999L29.6882 87.5Z" fill="#CAB13A"/>
<path d="M32.031 79.1992C32.031 81.2851 28.906 81.2851 28.906 79.1992C28.906 77.1172 32.031 77.1172 32.031 79.1992Z" fill="#CAB13A"/>
</g>
<defs>
<clipPath id="clip0">
<rect width="100" height="100" fill="white"/>
</clipPath>
</defs>
</svg>
