<svg width="126" height="138" viewBox="0 0 126 138" fill="none" xmlns="http://www.w3.org/2000/svg">
<path d="M58.7097 43.1299C57.5184 43.1299 56.5535 42.165 56.5535 40.9737C56.5535 39.7823 57.5184 38.8174 58.7097 38.8174C61.0924 38.8174 63.033 36.8768 63.033 34.4941C63.033 33.3028 63.9979 32.3379 65.1892 32.3379C66.3805 32.3379 67.3455 33.3028 67.3455 34.4941C67.3401 39.254 63.4696 43.1299 58.7097 43.1299Z" fill="#CAB13A"/>
<path d="M65.1722 25.8799C63.9809 25.8799 63.016 24.915 63.016 23.7236C63.016 20.1551 65.9162 17.2549 69.4847 17.2549C70.6761 17.2549 71.641 18.2198 71.641 19.4111C71.641 20.6025 70.6761 21.5674 69.4847 21.5674C68.2934 21.5674 67.3285 22.5323 67.3285 23.7236C67.3285 24.915 66.3636 25.8799 65.1722 25.8799Z" fill="#CAB13A"/>
<path d="M114.772 25.875C113.581 25.875 112.616 24.9101 112.616 23.7188C112.616 22.5274 111.651 21.5625 110.46 21.5625C109.268 21.5625 108.303 20.5976 108.303 19.4062C108.303 18.2149 109.268 17.25 110.46 17.25C114.028 17.25 116.928 20.1502 116.928 23.7188C116.928 24.9101 115.963 25.875 114.772 25.875Z" fill="#CAB13A"/>
<path d="M75.9597 21.563C74.7684 21.563 73.8035 20.5981 73.8035 19.4068V6.46387C73.8035 5.27254 74.7684 4.30762 75.9597 4.30762C77.151 4.30762 78.116 5.27254 78.116 6.46387V19.4068C78.116 20.5981 77.151 21.563 75.9597 21.563Z" fill="#CAB13A"/>
<path d="M121.24 43.1304C116.48 43.1304 112.61 39.2599 112.61 34.5C112.61 33.3087 113.575 32.3438 114.766 32.3438C115.957 32.3438 116.922 33.3087 116.922 34.5C116.922 36.8827 118.858 38.8179 121.24 38.8179C122.432 38.8179 123.397 39.7828 123.397 40.9741C123.397 42.1655 122.432 43.1304 121.24 43.1304Z" fill="#CAB13A"/>
<path d="M103.99 21.563C102.799 21.563 101.834 20.5981 101.834 19.4068V6.46387C101.834 5.27254 102.799 4.30762 103.99 4.30762C105.182 4.30762 106.146 5.27254 106.146 6.46387V19.4068C106.146 20.5981 105.182 21.563 103.99 21.563Z" fill="#CAB13A"/>
<path d="M110.465 21.5732H69.486C68.2946 21.5732 67.3297 20.6083 67.3297 19.417C67.3297 18.2257 68.2946 17.2607 69.486 17.2607H110.465C111.656 17.2607 112.621 18.2257 112.621 19.417C112.621 20.6083 111.656 21.5732 110.465 21.5732Z" fill="#CAB13A"/>
<path d="M99.6722 4.3125H80.2708C79.0794 4.3125 78.1145 3.34758 78.1145 2.15625C78.1145 0.964924 79.0794 0 80.2708 0H99.6722C100.864 0 101.828 0.964924 101.828 2.15625C101.828 3.34758 100.864 4.3125 99.6722 4.3125Z" fill="#CAB13A"/>
<path d="M65.1777 133.688C64.0565 133.688 63.1077 132.82 63.0323 131.682L56.5527 41.1254C56.4665 39.9394 57.3613 38.9044 58.5473 38.8235C59.7494 38.7265 60.7682 39.6321 60.8491 40.818L67.3232 131.375C67.4095 132.561 66.5146 133.596 65.3287 133.677C65.2802 133.688 65.2263 133.688 65.1778 133.688L65.1777 133.688Z" fill="#CAB13A"/>
<path d="M114.778 133.687C114.729 133.687 114.675 133.687 114.621 133.682C113.435 133.596 112.54 132.566 112.627 131.38L119.101 40.8232C119.187 39.6373 120.201 38.7371 121.403 38.8287C122.589 38.9149 123.483 39.9445 123.397 41.1305L116.923 131.688C116.848 132.82 115.899 133.687 114.778 133.687L114.778 133.687Z" fill="#CAB13A"/>
<path d="M69.4957 138C65.9272 138 63.0216 135.095 63.0216 131.526C63.0216 130.335 63.9865 129.37 65.1779 129.37C66.3692 129.37 67.3341 130.335 67.3341 131.526C67.3341 132.718 68.3044 133.688 69.4957 133.688C70.6871 133.688 71.652 134.653 71.652 135.844C71.652 137.036 70.6871 138 69.4957 138Z" fill="#CAB13A"/>
<path d="M13.4056 138C9.83711 138 6.93152 135.095 6.93152 131.526C6.93152 130.335 7.89644 129.37 9.08777 129.37C10.2791 129.37 11.244 130.335 11.244 131.526C11.244 132.718 12.2143 133.688 13.4056 133.688C14.597 133.688 15.5619 134.653 15.5619 135.844C15.5619 137.036 14.597 138 13.4056 138Z" fill="#CAB13A"/>
<path d="M43.5945 138C42.4032 138 41.4382 137.036 41.4382 135.844C41.4382 134.653 42.4032 133.688 43.5945 133.688C44.7858 133.688 45.7561 132.718 45.7561 131.526C45.7561 130.335 46.721 129.37 47.9124 129.37C49.1037 129.37 50.0686 130.335 50.0686 131.526C50.0686 135.095 47.163 138 43.5945 138Z" fill="#CAB13A"/>
<path d="M110.454 138.014C109.263 138.014 108.298 137.049 108.298 135.857C108.298 134.666 109.263 133.701 110.454 133.701C111.651 133.701 112.621 132.731 112.621 131.534C112.621 130.343 113.586 129.378 114.777 129.378C115.969 129.378 116.934 130.343 116.934 131.534C116.934 135.103 114.028 138.014 110.454 138.014Z" fill="#CAB13A"/>
<path d="M110.454 138H69.4957C68.3044 138 67.3395 137.035 67.3395 135.844C67.3395 134.652 68.3044 133.688 69.4957 133.688H110.454C111.645 133.688 112.61 134.652 112.61 135.844C112.61 137.035 111.645 138 110.454 138Z" fill="#CAB13A"/>
<path d="M65.1722 36.6665C63.9809 36.6665 63.016 35.7016 63.016 34.5103V23.7236C63.016 22.5323 63.9809 21.5674 65.1722 21.5674C66.3636 21.5674 67.3285 22.5323 67.3285 23.7236V34.5103C67.3285 35.7016 66.3636 36.6665 65.1722 36.6665Z" fill="#CAB13A"/>
<path d="M114.772 36.6607C113.581 36.6607 112.616 35.6957 112.616 34.5044V23.7178C112.616 22.5264 113.581 21.5615 114.772 21.5615C115.963 21.5615 116.928 22.5264 116.928 23.7178V34.5044C116.928 35.6957 115.963 36.6607 114.772 36.6607Z" fill="#CAB13A"/>
<path d="M123.392 43.1299H56.5472C55.3559 43.1299 54.391 42.165 54.391 40.9736C54.391 39.7823 55.3559 38.8174 56.5472 38.8174H123.392C124.583 38.8174 125.548 39.7823 125.548 40.9736C125.548 42.165 124.583 43.1299 123.392 43.1299Z" fill="#CAB13A"/>
<path d="M75.9597 8.61962C74.7684 8.61962 73.8035 7.6547 73.8035 6.46337C73.8035 2.90021 76.7037 0 80.2615 0C81.4528 0 82.4177 0.964924 82.4177 2.15625C82.4177 3.34758 81.4528 4.3125 80.2615 4.3125C79.0755 4.3125 78.1106 5.27742 78.1106 6.46337C78.116 7.6547 77.1511 8.61962 75.9597 8.61962Z" fill="#CAB13A"/>
<path d="M103.99 8.61964C102.799 8.61964 101.834 7.65472 101.834 6.46339C101.834 5.27206 100.864 4.30176 99.6724 4.30176C98.481 4.30176 97.5161 3.33683 97.5161 2.14551C97.5161 0.954181 98.481 -0.0107422 99.6724 -0.0107422C103.241 -0.0107422 106.146 2.89485 106.146 6.46339C106.146 7.65472 105.182 8.61964 103.99 8.61964Z" fill="#CAB13A"/>
<path d="M103.99 12.9326H75.9597C74.7684 12.9326 73.8035 11.9677 73.8035 10.7764C73.8035 9.58504 74.7684 8.62012 75.9597 8.62012H103.99C105.182 8.62012 106.147 9.58504 106.147 10.7764C106.147 11.9677 105.182 12.9326 103.99 12.9326Z" fill="#CAB13A"/>
<path d="M115.084 129.375H64.8699C63.6785 129.375 62.7136 128.41 62.7136 127.219C62.7136 126.027 63.6785 125.062 64.8699 125.062H115.084C116.275 125.062 117.24 126.027 117.24 127.219C117.24 128.41 116.275 129.375 115.084 129.375Z" fill="#CAB13A"/>
<path d="M43.5945 138H13.407C12.2157 138 11.2507 137.035 11.2507 135.844C11.2507 134.652 12.2157 133.688 13.407 133.688H43.6C44.7913 133.688 45.7563 134.652 45.7563 135.844C45.7509 137.035 44.7913 138 43.5946 138H43.5945Z" fill="#CAB13A"/>
<path d="M47.9111 133.687C46.7198 133.687 45.7549 132.722 45.7549 131.531V56.0352C45.7549 54.8438 46.7198 53.8789 47.9111 53.8789C49.1025 53.8789 50.0674 54.8438 50.0674 56.0352V131.531C50.0674 132.722 49.1025 133.687 47.9111 133.687Z" fill="#CAB13A"/>
<path d="M9.08899 133.687C7.89766 133.687 6.93274 132.722 6.93274 131.531V56.0352C6.93274 54.8438 7.89766 53.8789 9.08899 53.8789C10.2803 53.8789 11.2452 54.8438 11.2452 56.0352V131.531C11.2452 132.722 10.2803 133.687 9.08899 133.687Z" fill="#CAB13A"/>
<path d="M47.9111 58.1914H9.08752C7.8962 58.1914 6.93127 57.2265 6.93127 56.0352C6.93127 54.8438 7.8962 53.8789 9.08752 53.8789H47.9111C49.1024 53.8789 50.0673 54.8438 50.0673 56.0352C50.0673 57.2265 49.1024 58.1914 47.9111 58.1914Z" fill="#CAB13A"/>
<path d="M47.911 129.375H9.06677C7.87545 129.375 6.91052 128.41 6.91052 127.219C6.91052 126.027 7.87545 125.062 9.06677 125.062H47.911C49.1023 125.062 50.0673 126.027 50.0673 127.219C50.0673 128.41 49.1023 129.375 47.911 129.375Z" fill="#CAB13A"/>
<path d="M47.911 69H9.06677C7.87545 69 6.91052 68.0351 6.91052 66.8438C6.91052 65.6524 7.87545 64.6875 9.06677 64.6875H47.911C49.1023 64.6875 50.0673 65.6524 50.0673 66.8438C50.0673 68.0351 49.1023 69 47.911 69Z" fill="#CAB13A"/>
<path d="M43.5945 125.063C42.7751 125.063 41.988 124.588 41.6269 123.796L0.64224 33.2279C0.151691 32.1444 0.631459 30.8668 1.72036 30.3762C2.80389 29.8803 4.08141 30.3655 4.572 31.4544L45.5566 122.017C46.0472 123.1 45.5674 124.378 44.4785 124.869C44.1928 125.003 43.8909 125.063 43.5944 125.063L43.5945 125.063Z" fill="#CAB13A"/>
</svg>
