<svg width="100" height="100" viewBox="0 0 100 100" fill="none" xmlns="http://www.w3.org/2000/svg">
<path d="M94.594 17.8356C94.7308 15.402 94.055 13.3747 92.5667 12.1598C90.9456 10.8082 88.7815 10.5387 87.43 10.5387C87.0238 9.18709 85.9417 6.89029 84.1878 5.80819C83.1058 5.26913 81.8909 5.13241 80.5394 5.67147C80.4027 5.67147 80.2699 5.80819 80.1332 5.941C68.1062 17.156 44.9962 27.293 21.7542 36.617C20.1331 36.7537 18.512 37.2928 17.43 38.5076C16.2152 39.7224 14.9964 41.8865 15.9417 45.6717C16.6175 48.5076 18.6448 51.7537 21.0784 54.7264L11.4846 58.6444C9.86349 58.7811 8.24239 59.4569 7.16039 60.535C5.94559 61.7498 5.40259 63.2381 5.40259 65.1288C5.40259 69.8593 9.45729 75.5348 13.2385 79.1838C16.0744 85.2658 21.7502 91.6178 26.7505 93.7778C28.1021 94.3169 29.3169 94.5903 30.2622 94.5903C31.7505 94.5903 32.8286 94.0512 33.6411 93.5083C54.5941 86.6216 76.0821 73.1103 92.5671 56.7583C92.7038 56.6216 92.8366 56.3521 92.9733 56.0825C93.3796 53.6489 92.9733 51.6216 91.6217 50.1372C90.2701 48.5161 88.11 48.1099 86.7584 47.9731C86.4889 46.4848 85.8131 44.1879 84.192 42.9731C83.7858 42.7036 83.2467 42.4341 82.7037 42.2973C83.11 41.7583 83.5162 41.2153 84.0553 40.6762C84.1921 40.4067 84.3249 40.1372 84.3249 39.8637C84.4616 36.891 83.3796 34.5942 81.2155 33.5121C85.946 28.7816 90.403 23.9183 94.3245 18.7821C94.4612 18.3798 94.594 18.1103 94.594 17.8368L94.594 17.8356ZM81.758 8.24179C82.2971 8.10507 82.5705 8.24179 82.84 8.37851C83.922 8.91757 84.5978 10.6754 84.8673 11.7574C75.9454 21.8904 56.7583 34.9994 31.8903 47.7024C32.1599 44.8665 30.8083 41.6204 28.7809 39.4602C28.1052 38.7844 27.2926 38.2454 26.484 37.7024C48.511 28.7844 70 19.0544 81.757 8.24141L81.758 8.24179ZM19.461 40.4058C20.2735 39.5933 21.3516 39.3238 22.4337 39.3238C24.0548 39.3238 25.5431 40.1363 26.7579 41.3511C29.1915 43.7847 29.8673 47.9722 28.2462 49.5933C28.2462 49.73 28.1095 49.73 28.1095 49.8628C28.1095 49.9995 27.9728 49.9995 27.9728 50.1324V50.4019V50.6714V50.9409C27.9728 51.0777 27.9728 51.0777 28.1095 51.2105C28.1095 51.3472 28.2462 51.3472 28.2462 51.3472C28.2462 51.3472 28.2462 51.4839 28.383 51.4839C28.5197 51.6206 28.5197 51.6206 28.6525 51.6206L28.7892 51.7574H29.0587H29.3283H29.5978C29.7345 51.7574 29.7345 51.7574 29.8673 51.6206C30.5431 51.3511 31.2189 50.9449 31.8946 50.5386C33.6524 50.2691 36.0821 50.9449 37.8399 52.4292C40.4063 54.5933 40.8126 57.4292 39.8672 59.3198C38.1094 59.8589 36.2188 60.4018 34.3281 60.9409C31.2187 59.9956 27.5703 57.2925 24.4648 54.1831C21.7617 51.2104 19.4648 47.8315 18.789 44.9956C18.1093 42.9722 18.3789 41.4878 19.4609 40.4058L19.461 40.4058ZM18.379 61.3508C17.7033 60.675 16.8907 59.9992 16.0821 59.593L23.1094 56.7571C25.2735 58.9212 27.7032 60.8118 30.1367 62.1633C27.0273 62.9758 23.7851 63.9211 20.6758 64.7297C20.1368 63.5109 19.3242 62.2961 18.3789 61.3508H18.379ZM9.05484 62.4328C9.86734 61.6203 10.9454 61.218 12.1642 61.3508C13.7853 61.3508 15.2736 62.1633 16.4884 63.3781C17.0275 63.9172 17.5704 64.7297 17.9767 65.4054C16.4884 65.4054 15.004 65.8116 13.922 66.757C12.7072 67.7023 11.2189 69.5929 11.4884 73.1086C9.32434 70.1359 8.10954 67.2961 8.10954 65.1359C8.10954 63.9171 8.37907 63.1086 9.05485 62.4328H9.05484ZM27.8358 91.3508C22.0233 88.9172 14.8628 79.5928 14.1878 73.2418C13.9183 71.2145 14.3246 69.7301 15.5394 68.9176C16.2152 68.3785 17.0277 68.1051 17.973 68.1051H18.6488C20.1371 68.3746 21.6215 69.1871 22.7035 70.6715C23.9183 72.2926 24.5941 74.7262 24.3246 76.6168C24.1879 77.4293 23.9184 78.3746 23.1098 79.0504L22.9731 79.1871C22.8364 79.3238 22.8364 79.3238 22.8364 79.4566V79.5934C22.8364 79.7301 22.6997 79.8629 22.6997 79.9996V80.1363V80.5426C22.6997 80.5426 22.6997 80.6793 22.8364 80.6793C22.8364 80.816 22.8364 80.816 22.9731 80.9488L23.1098 81.0855C23.2465 81.2223 23.2465 81.2223 23.3793 81.2223H23.5161C23.6528 81.2223 23.6528 81.359 23.7856 81.359H24.0551H24.3247C25.0004 81.0895 25.813 80.8199 26.4888 80.5465H27.4341C29.3247 80.816 31.4888 82.1676 32.5708 83.6559C33.6528 85.0075 34.1919 86.7653 33.9224 88.2497C33.7856 89.5935 33.2427 90.5388 32.4341 91.2145C31.3521 92.027 29.731 92.1637 27.8364 91.3512L27.8358 91.3508ZM90.4058 55.1358C74.9998 70.2688 55.6758 82.7018 36.4878 89.7298C36.6246 89.4603 36.6246 89.054 36.7574 88.7845C36.8941 87.8392 36.8941 87.0267 36.6206 86.0814C38.1089 85.5423 39.5933 84.8666 41.2144 84.1908C41.8902 83.9212 42.1598 83.1088 41.8902 82.433C41.6207 81.7572 40.8082 81.4877 40.1324 81.7572C38.6441 82.433 37.1597 82.972 35.6715 83.515C35.402 83.1087 35.1325 82.5697 34.859 82.1634C34.0465 80.9486 32.5621 79.7298 31.0738 78.9212C48.2418 72.7024 73.1088 62.1632 86.0818 50.5382C86.8943 50.5382 88.6482 50.8077 89.5935 51.8898C90.2693 52.5656 90.5388 53.6476 90.406 55.1359L90.4058 55.1358ZM84.187 48.6475C74.05 57.7022 53.242 68.1085 26.89 77.5655C26.89 77.296 27.0268 77.1592 27.0268 76.8897C27.433 74.3233 26.4877 71.2139 24.8627 69.0538C24.3236 68.2413 23.6479 67.5655 22.8354 67.0265C45.6714 61.0812 68.2414 54.1905 81.4834 44.8625C82.0224 44.7258 82.2959 44.9992 82.5654 45.132C83.5107 45.675 84.0537 47.4328 84.1865 48.6476L84.187 48.6475ZM77.5659 44.1866C71.4839 47.9718 63.7809 51.4835 54.9999 54.5926C63.3788 49.1864 71.6209 42.7016 79.0549 35.5376C80.8127 35.9438 81.6213 37.2954 81.6213 39.3228C80.1369 41.0806 78.9182 42.7017 77.5666 44.1861L77.5659 44.1866ZM42.8359 58.5106C42.9727 57.2958 42.8359 56.077 42.4297 54.8622C44.3203 53.9169 46.0781 52.8349 47.9688 51.7528C48.6446 51.3465 48.7813 50.538 48.5078 49.8622C48.1016 49.1864 47.293 49.0497 46.6172 49.3231C44.8594 50.4051 42.9688 51.3504 41.211 52.2958C40.672 51.6201 40.129 50.9442 39.4532 50.2685C38.5079 49.456 37.2891 48.7802 36.0743 48.2412C52.2973 40.1357 75.6763 26.4872 87.1643 13.2412C87.9768 13.2412 89.7308 13.2412 90.8128 14.1865C91.4885 14.8623 91.8947 15.9443 91.8947 17.2959C78.7857 34.0539 60.9457 49.0539 42.8357 58.5109L42.8359 58.5106Z" fill="#CAB13A"/>
<path d="M67.9731 33.6475C63.5122 37.7022 58.7856 41.3506 54.0551 44.5925C53.3793 44.9988 53.2426 45.8073 53.6488 46.4831C53.9184 46.8894 54.3246 47.0222 54.7308 47.0222C55.0004 47.0222 55.2699 46.8855 55.5433 46.7527C60.4066 43.3738 65.1371 39.7254 69.7313 35.6707C70.2704 35.1316 70.4071 34.3191 69.868 33.7801C69.4618 33.241 68.5125 33.241 67.9735 33.6473L67.9731 33.6475Z" fill="#CAB13A"/>
<path d="M51.6211 46.8906C51.082 46.7538 50.5391 46.7538 50.1328 47.1601C49.9961 47.2968 49.8633 47.4296 49.8633 47.5663C49.7266 47.7031 49.7266 47.9726 49.7266 48.1054C49.7266 48.5116 49.8633 48.7812 50.1328 49.0507C50.2695 49.1874 50.4023 49.3202 50.5391 49.3202C50.6758 49.3202 50.9453 49.457 51.0781 49.457C51.4844 49.457 51.7539 49.3202 52.0234 49.0507C52.293 48.7812 52.4297 48.5116 52.4297 48.1054C52.4297 47.6991 52.293 47.4296 52.0234 47.1601C51.8906 47.164 51.7578 47.0273 51.6211 46.8906H51.6211Z" fill="#CAB13A"/>
<path d="M64.461 68.3788C58.5157 72.4335 52.434 75.9452 46.219 78.9178C45.5432 79.1874 45.2737 79.9998 45.5432 80.6756C45.8127 81.2147 46.219 81.4881 46.758 81.4881C46.8947 81.4881 47.1642 81.4881 47.2971 81.3514C53.5119 78.242 59.8631 74.7303 65.8091 70.6754C66.4848 70.2692 66.6216 69.4606 66.2153 68.7848C65.813 68.109 65.0005 67.9723 64.4614 68.3786L64.461 68.3788Z" fill="#CAB13A"/>
</svg>
