<svg width="133" height="91" viewBox="0 0 133 91" fill="none" xmlns="http://www.w3.org/2000/svg">
<path d="M16.9982 28.9317C9.0194 39.9795 6.773 53.8851 11.2712 64.3165C11.6825 65.1339 12.2942 65.5452 13.1117 65.5452C13.3173 65.5452 13.7234 65.5452 13.929 65.3396C14.9521 64.9282 15.3634 63.7048 14.9521 62.6817C11.0656 53.4795 13.1116 41.2032 20.273 31.1835C20.8847 30.3661 20.6843 28.9317 19.8616 28.32C18.8386 27.703 17.6151 27.9087 16.9982 28.9317L16.9982 28.9317Z" fill="#CAB13A"/>
<path d="M111.703 29.5483V28.9366C111.498 26.8906 110.475 25.0501 108.84 24.0271C105.365 21.5749 101.478 20.1406 97.386 19.3231C95.1342 18.9118 92.8878 19.7345 91.4534 21.1636C90.0191 19.7292 87.7725 18.9118 85.5209 19.3231C81.4287 20.1405 77.5421 21.7753 74.0669 24.0271C72.4322 25.0501 71.409 26.8906 71.2034 28.9366V29.5483C68.9516 29.5483 66.9056 30.7771 65.6822 32.6174C63.4304 36.0926 61.7957 39.9791 60.9783 44.0714C60.5669 46.1174 61.1839 48.1635 62.4126 49.5926L62.824 50.0039C62.6183 50.2096 62.6183 50.2096 62.4126 50.4153C61.1839 52.05 60.5722 54.0962 60.9783 55.9365C61.7957 60.0286 63.4304 63.9153 65.6822 67.3904C66.9109 69.2309 68.957 70.2539 71.2034 70.2539V70.8656C71.4091 72.9117 72.4322 74.7521 74.0669 75.7752C77.5421 78.2273 81.4286 79.6617 85.5209 80.4791C85.9322 80.4791 86.3382 80.6848 86.7496 80.6848C88.59 80.6848 90.2248 79.8674 91.4535 78.8443C92.6822 80.073 94.317 80.6848 96.1575 80.6848C96.5688 80.6848 96.9748 80.6848 97.3862 80.4791C101.478 79.6617 105.365 78.027 108.84 75.7752C110.475 74.7521 111.498 72.9117 111.704 70.8656V70.2539C113.955 70.2539 116.001 69.0252 117.225 67.1848C119.477 63.7097 121.111 59.8231 121.929 55.7309C122.34 53.6848 121.723 51.8444 120.494 50.2097C120.289 50.004 120.289 50.004 120.083 49.7983L120.494 49.387C121.723 47.7523 122.335 45.7061 121.929 43.8658C121.111 39.7736 119.477 35.887 117.225 32.4118C116.001 30.5661 113.955 29.5483 111.704 29.5483H111.703ZM96.5686 23.2044C100.044 23.8161 103.524 25.2505 106.593 27.2965C107.205 27.7079 107.616 28.5253 107.822 29.137C107.822 29.9544 107.616 30.7717 107.005 31.1831L95.5508 42.637C94.9391 42.2257 94.1164 42.0253 93.5047 41.8196V25.6615C93.4995 24.2271 94.7282 22.9983 96.5686 23.2041L96.5686 23.2044ZM91.4533 54.0911C89.2015 54.0911 87.3612 52.2506 87.3612 49.9989C87.3612 47.7473 89.2016 45.9068 91.4533 45.9068C93.705 45.9068 95.5454 47.7473 95.5454 49.9989C95.5454 52.2506 93.4994 54.0911 91.4533 54.0911ZM76.1133 27.5028C79.1823 25.4568 82.4519 24.0276 86.1381 23.4107H86.7498C88.1842 23.4107 89.4077 24.6394 89.4077 26.0686V42.2267C88.5903 42.4324 87.9733 42.6381 87.3616 43.0441L75.9077 31.5902C75.296 30.9785 75.0903 30.3615 75.0903 29.5441C75.0903 28.5263 75.5016 27.9094 76.1133 27.5033L76.1133 27.5028ZM64.6593 44.6843C65.271 41.0034 66.7054 37.7287 68.7514 34.6594C69.1628 33.8421 69.9802 33.4307 71.0032 33.4307C71.6149 33.4307 72.4376 33.6364 72.8437 34.2481C73.255 34.6594 84.9093 46.5193 84.2976 45.702C83.8863 46.3138 83.6859 47.1364 83.4802 47.7481H67.3221C66.5047 47.7481 65.8877 47.3368 65.276 46.7251C64.659 46.319 64.4534 45.5016 64.659 44.6843H64.6593ZM68.9519 65.1395C66.9059 62.0704 65.4767 58.8008 64.8598 55.1146C64.6541 54.2973 64.8598 53.4799 65.4715 52.8628C65.8828 52.2511 66.7002 51.8398 67.5176 51.8398H83.6757C83.8814 52.6572 84.087 53.2742 84.4931 53.8858C79.9949 58.384 73.8566 64.5224 73.0392 65.3398C71.8157 66.5685 69.7749 66.3628 68.9523 65.1394L68.9519 65.1395ZM86.7503 76.5934H86.339C82.6581 75.9817 79.3834 74.5473 76.3141 72.5013C74.8798 71.6839 74.6794 69.6378 75.9028 68.4092C76.1085 68.2035 77.7433 66.5687 77.5375 66.7745L87.3566 56.9554C87.9683 57.3667 88.791 57.5671 89.4027 57.7727V69.8384V74.1362C89.2023 75.5706 88.1845 76.5936 86.7502 76.5936L86.7503 76.5934ZM106.589 72.5013C103.519 74.5473 100.25 75.9765 96.5637 76.5934C94.929 77.0047 93.4946 75.776 93.4946 74.1413V73.9356V72.0951V57.9836C94.312 57.7779 94.929 57.5723 95.5407 57.1662L106.995 68.6202C107.606 69.2319 107.812 69.8489 107.606 70.6662C107.612 71.2727 107.206 71.8897 106.589 72.5014L106.589 72.5013ZM117.431 52.8628C117.842 53.4745 118.042 54.2972 118.042 55.1146C117.431 58.7955 115.996 62.0702 113.95 65.1395C113.133 66.3682 111.087 66.5738 110.064 65.5508L98.6098 54.0969C99.0212 53.4851 99.2215 52.6625 99.4272 52.0508H115.585C116.202 52.0455 117.025 52.2512 117.431 52.8629L117.431 52.8628ZM117.431 46.9355C117.019 47.5472 116.202 47.9586 115.385 47.9586L99.2265 47.9533C99.0208 47.1359 98.8151 46.5189 98.4091 45.9072L109.863 34.4533C110.886 33.4303 112.932 33.6359 113.955 34.8646C116.001 37.9337 117.43 41.2033 118.047 44.8895C118.248 45.5012 118.047 46.3186 117.43 46.9355L117.431 46.9355Z" fill="#CAB13A"/>
<path d="M91.2483 9.29817C85.3157 9.29817 79.5887 10.7325 74.2734 13.1847C74.479 11.956 74.6847 11.1386 74.8851 10.1156C75.9082 3.97728 69.7698 -1.1326 64.043 1.1138C60.3621 2.34251 56.4756 5.00031 49.3145 4.38863C18.8396 2.13683 -8.16039 38.7502 3.90995 67.1852C8.20781 77.4104 2.68124 82.937 7.79647 88.0468C10.4543 90.7047 14.3409 91.3216 17.41 89.6815C19.8621 88.6585 23.3425 85.3836 29.4756 86.0006C39.7007 87.0236 50.9541 83.1371 59.9505 75.7754C67.3122 85.1833 78.5656 90.7091 91.4487 90.7091C113.95 90.7091 132.154 72.5057 132.154 50.0039C131.953 27.5021 113.749 9.29871 91.2475 9.29871L91.2483 9.29817ZM57.4983 72.2946C49.3139 79.2502 39.0883 82.7255 29.8867 81.9081C22.3193 81.0907 18.2272 84.9771 15.7752 86.0002C13.1173 87.4345 9.63688 85.5888 9.84262 82.1137C9.84262 81.2963 9.84262 80.479 10.0483 79.4558C10.2539 76.181 10.66 71.477 8.00222 65.544C-2.8399 39.7725 21.7074 6.22773 49.1138 8.26893C57.2981 8.88064 62.0021 5.81679 65.4771 4.79376C68.3406 3.77072 71.4097 6.22814 70.7927 9.29196C70.3814 11.9498 69.9754 13.5898 69.9754 15.4303C49.9306 28.1129 45.2272 53.6839 57.4984 72.2936L57.4983 72.2946ZM91.4535 86.4115C73.4553 86.4115 60.3616 74.752 56.2738 59.4115C55.2508 55.9364 54.8395 52.6615 54.8395 49.1864C55.2508 27.9131 72.8377 13.1846 91.2476 13.1846C108.839 13.1846 127.861 27.0963 127.861 49.7979C127.861 70.0479 111.498 86.4113 91.4528 86.4113L91.4535 86.4115Z" fill="#CAB13A"/>
</svg>
