<svg width="100" height="100" viewBox="0 0 100 100" fill="none" xmlns="http://www.w3.org/2000/svg">
<g clip-path="url(#clip0)">
<path d="M93.6211 18.4491C94.3125 17.7577 94.3125 16.5507 93.6211 15.8632C72.5861 -5.17184 38.4491 -5.17184 17.2421 15.8632C-3.79293 36.8982 -3.79293 71.2072 17.2421 92.2422C17.5858 92.5859 18.1053 92.7578 18.621 92.7578C19.1366 92.7578 19.6562 92.5859 19.9999 92.2422L93.6211 18.4491ZM20.6911 77.4141C17.5895 72.7579 15.5192 67.7579 14.4841 62.4141C13.7927 58.9649 16.2068 55.8633 19.656 55.8633H42.758C43.1017 57.9336 43.7932 60 45.1721 61.7266L28.7931 78.1056C26.379 80.5158 22.4142 80.0001 20.6915 77.4142L20.6911 77.4141ZM14.3083 45.5161C15.3435 40.1723 17.4099 35.0001 20.5153 30.5161C22.4137 27.7583 26.3786 27.4145 28.6169 29.8247L44.9959 46.2037C43.617 47.9264 42.9256 49.9967 42.5818 52.067L19.4838 52.0709C16.2065 52.0709 13.6205 48.9654 14.308 45.5162L14.3083 45.5161ZM32.0703 19.1371C36.5547 16.0355 41.7265 13.9652 47.0703 12.7582C50.5195 12.0668 53.6211 14.6566 53.6211 17.9301V41.0321C51.5508 41.3758 49.4844 42.0673 47.7578 43.4462L31.3788 27.0672C29.1366 24.8289 29.3085 20.8641 32.0702 19.1375L32.0703 19.1371ZM79.6563 27.2426L63.2773 43.6216C61.5546 42.2427 59.4843 41.5513 57.414 41.2075V17.9305C57.414 14.4813 60.5156 12.0672 63.9648 12.7586C69.3086 13.7938 74.4808 16.0359 78.9648 19.1375C81.5507 20.8641 82.0703 24.8289 79.6562 27.243L79.6563 27.2426ZM48.9653 47.4146C52.0669 44.313 57.0669 43.7935 60.6883 46.2076L47.7583 59.1376C45.3442 55.5165 45.8638 50.5165 48.9653 47.4146ZM18.7933 88.1026C0.51627 68.4506 0.863272 37.5866 20.0003 18.4506C39.3093 -0.861435 70.0003 -1.03344 89.6563 17.2436L84.8282 22.0717C84.4844 19.6576 83.1055 17.4155 81.0352 16.0365C76.0352 12.7592 70.5192 10.3451 64.6562 9.13806C61.207 8.44665 57.5859 9.82947 55.5195 12.5873C53.4492 9.82946 49.8281 8.45056 46.3828 9.13806C40.5195 10.3451 35.0038 12.5873 30.0038 16.0365C27.246 17.9349 25.6952 21.2084 26.2108 24.6576C22.7616 24.1419 19.4881 25.6928 17.5897 28.4506C14.1405 33.4506 11.8983 38.9666 10.6913 44.8296C9.99986 48.2788 11.2069 51.728 13.9686 53.9663C11.2108 56.0366 9.83187 59.6577 10.6913 63.103C11.8983 68.9663 14.1405 74.482 17.5897 79.482C18.9686 81.5523 21.2108 82.9312 23.6249 83.275L18.7933 88.1026Z" fill="#CAB13A"/>
<path d="M90.344 33.2773C89.6526 33.2773 88.9651 33.6211 88.7932 34.3125C87.758 36.2109 82.4143 45.8635 82.4143 49.6565C82.4143 54.1409 86.0354 57.7581 90.5159 57.7581C95.0003 57.7581 98.6175 54.137 98.6175 49.6565C98.6175 45.8635 93.2737 36.2075 92.2386 34.3125C91.5511 33.6211 91.0355 33.2773 90.3441 33.2773H90.344ZM90.344 53.9653C87.9299 53.9653 86.0354 52.0669 86.0354 49.6567C86.0354 48.1059 88.2776 43.2778 90.344 39.1407C92.4143 43.2774 94.6526 48.1055 94.6526 49.6567C94.6565 51.8989 92.7581 53.9653 90.344 53.9653Z" fill="#CAB13A"/>
<path d="M68.1021 57.4141C67.4107 57.4141 66.7232 57.7578 66.5513 58.4493C65.5161 60.3477 60.1724 70.0003 60.1724 73.7933C60.1724 78.2777 63.7935 81.8949 68.274 81.8949C72.7584 81.8949 76.3756 78.2738 76.3756 73.7933C76.3756 70.0003 71.0318 60.3443 69.9967 58.4493C69.4849 57.7579 68.7936 57.4141 68.1022 57.4141H68.1021ZM68.1021 78.1021C65.688 78.1021 63.7935 76.2037 63.7935 73.7935C63.7935 72.2427 66.0357 67.4146 68.1021 63.2775C70.1724 67.4142 72.4107 72.2423 72.4107 73.7935C72.4146 76.0357 70.5162 78.1021 68.1021 78.1021Z" fill="#CAB13A"/>
<path d="M89.3091 75.6914C88.6177 75.6914 87.9302 76.0352 87.7583 76.7266C86.7231 78.625 81.3794 88.2776 81.3794 92.0706C81.3794 96.555 85.0005 100.172 89.481 100.172C93.9654 100.172 97.5826 96.5511 97.5826 92.0706C97.5826 88.2776 92.2388 78.6216 91.2037 76.7266C90.5162 76.0352 90.0006 75.6914 89.3092 75.6914H89.3091ZM89.3091 96.2074C86.895 96.2074 85.0005 94.309 85.0005 91.8988C85.0005 90.348 87.2427 85.5199 89.3091 81.3828C91.3794 85.5195 93.6177 90.3476 93.6177 91.8988C93.6216 94.309 91.7232 96.2074 89.3091 96.2074Z" fill="#CAB13A"/>
</g>
<defs>
<clipPath id="clip0">
<rect width="100" height="100" fill="white"/>
</clipPath>
</defs>
</svg>
