<?xml version="1.0" encoding="utf-8"?>
<!-- Generator: Adobe Illustrator 25.2.3, SVG Export Plug-In . SVG Version: 6.00 Build 0)  -->
<svg version="1.1" id="Ebene_1" xmlns="http://www.w3.org/2000/svg" xmlns:xlink="http://www.w3.org/1999/xlink" x="0px" y="0px"
	 viewBox="0 0 135 100" style="enable-background:new 0 0 135 100;" xml:space="preserve">
<style type="text/css">
	.st0{fill:#2F424C;}
</style>
<path class="st0" d="M133.3,0.1c-0.9-0.3-2,0-2.6,0.8c0,0.1-7.1,8.5-28.9,15.3l0,0c-12.3,3.6-22,13.2-25.5,25.6
	c-1.6,6.1-1,11.8,1.5,15.9c-3.9,5.1-6.6,10.9-7.9,17.2c-1-1.7-2.2-3.3-3.4-4.8c3-4.6,3.7-11.3,1.9-18.6
	c-2.8-10.8-12.1-24.3-29.8-29.8C12.7,13.5,4.4,3.5,4.3,3.4C3.7,2.7,2.6,2.3,1.7,2.7C0.7,3,0.1,3.8,0,4.8c0,1.7-1.3,42.1,12.4,59.4
	c8.1,10.2,19,16.4,29.8,16.9h1.5c7.2,0,14.2-2.7,19.4-7.6c7.7,9.5,9.2,24.1,9.2,24.3c0.1,1.2,1.1,2.2,2.4,2.2H75
	c0.6-0.1,1.2-0.4,1.6-0.8c0.4-0.5,0.6-1.1,0.5-1.7C76.5,92.2,75.2,87,73.3,82c0.1-0.2,0.1-0.4,0.2-0.6c0-0.2,1.2-12.2,7.5-20.2l0,0
	c4.5,4.1,10.4,6.4,16.5,6.4h1.3c9.3-0.4,18.6-5.7,25.6-14.5C136.1,38.2,135,3.8,135,2.4C134.9,1.4,134.3,0.5,133.3,0.1L133.3,0.1z
	 M42.6,76.4c-9.5-0.4-19-5.9-26.3-15.1C6.4,48.8,5,21.9,4.8,10.4c5,4,14.9,10.3,32.3,15.7C53,31,61.3,43,63.7,52.5
	c1.4,5.4,1.1,10.4-0.7,13.9c-2.6-2.2-5.6-3.8-8.8-4.8c-5.9-9.5-5.6-13.5-4.9-15c0.3-0.6,0.4-1.2,0.2-1.9c-0.2-0.6-0.6-1.1-1.2-1.4
	C47.7,43,47,43,46.4,43.2c-0.6,0.2-1.1,0.7-1.4,1.3c-1.7,3.5-0.9,8.5,2.5,15.1c-15-5.3-18.8-14.3-21.6-21c-0.5-1.1-0.9-2.1-1.4-3.1
	l0,0c-0.3-0.6-0.7-1.1-1.3-1.3c-0.6-0.2-1.3-0.2-1.9,0.1s-1,0.8-1.2,1.4c-0.2,0.6-0.2,1.3,0.1,1.9c0.4,0.9,0.8,1.9,1.3,2.9
	c3.4,8,8.5,20,30.6,25.5l0,0c2.9,0.7,5.6,2.1,7.8,4.1C55.2,74.4,49,76.7,42.6,76.4L42.6,76.4z M120.6,50
	c-6.1,7.7-14.1,12.3-22.1,12.7l0,0c-5.2,0.3-10.3-1.5-14.2-4.9c1.8-1.5,3.9-2.6,6.2-3.2c18.9-4.8,23.3-15,26.2-21.8
	c0.4-0.9,0.7-1.7,1.1-2.4c0.6-1.2,0.1-2.6-1.1-3.2s-2.6-0.1-3.2,1.1c-0.4,0.8-0.7,1.7-1.1,2.6c-2.5,5.9-5.5,12.9-17.4,17.4
	C97.6,43,98.2,39,96.7,36c-0.6-1.2-2-1.7-3.2-1.1c-1.2,0.6-1.7,2-1.1,3.2s0.8,4.4-4,12.3l0,0c-2.6,0.8-5,2.1-7.1,3.8
	c-1.4-3.6-1.5-7.5-0.4-11.1c3.1-10.8,11.5-19.2,22.3-22.2c14.3-4.4,22.6-9.5,27-13C130,17.8,128.7,39.8,120.6,50L120.6,50z"/>
</svg>
