<svg id="Ebene_1" data-name="Ebene 1" xmlns="http://www.w3.org/2000/svg" xmlns:xlink="http://www.w3.org/1999/xlink" viewBox="0 0 1366 899"><defs><style>.cls-1{fill:none;}.cls-2{fill:#fbf5e0;}.cls-3{clip-path:url(#clip-path);}.cls-4,.cls-6{fill:#1f2b33;}.cls-5{clip-path:url(#clip-path-2);}.cls-6{font-size:25px;font-family:OpenSans-SemiBold, Open Sans;font-weight:600;}</style><clipPath id="clip-path"><rect class="cls-1" x="390.57" y="206" width="178.64" height="178.64"/></clipPath><clipPath id="clip-path-2"><rect class="cls-1" x="381.83" y="481.47" width="165.19" height="165.19"/></clipPath></defs><ellipse class="cls-2" cx="614.95" cy="424.5" rx="429.96" ry="423.5"/><g class="cls-3"><path class="cls-4" d="M438,258.6a16.75,16.75,0,1,0-16.74-16.75A16.75,16.75,0,0,0,438,258.6Zm0-27.91a11.17,11.17,0,1,1-11.16,11.16A11.16,11.16,0,0,1,438,230.69Z"/><path class="cls-4" d="M442.21,238.19c0,3.72-5.58,3.72-5.58,0S442.21,234.47,442.21,238.19Z"/><path class="cls-4" d="M479.9,254.85a16.75,16.75,0,1,0-16.75-16.75,16.74,16.74,0,0,0,16.75,16.75Zm0-27.92a11.17,11.17,0,1,1-11.17,11.17,11.17,11.17,0,0,1,11.17-11.17Z"/><path class="cls-4" d="M484.08,234.44c0,3.72-5.58,3.72-5.58,0S484.08,230.72,484.08,234.44Z"/><path class="cls-4" d="M520.37,256.24a16.75,16.75,0,1,0-16.75-16.74,16.74,16.74,0,0,0,16.75,16.74Zm0-27.91A11.16,11.16,0,1,1,509.2,239.5a11.15,11.15,0,0,1,11.17-11.17Z"/><path class="cls-4" d="M524.56,235.83c0,3.73-5.59,3.73-5.59,0S524.56,232.11,524.56,235.83Z"/><path class="cls-4" d="M424.07,272.56a16.74,16.74,0,1,0-16.75,16.75,16.76,16.76,0,0,0,16.75-16.75Zm-27.91,0a11.17,11.17,0,1,1,11.16,11.16,11.17,11.17,0,0,1-11.16-11.16Z"/><path class="cls-4" d="M411.51,268.89c0,3.72-5.58,3.72-5.58,0S411.51,265.18,411.51,268.89Z"/><path class="cls-4" d="M431.05,278.57a16.75,16.75,0,1,0,16.74-16.74,16.72,16.72,0,0,0-16.74,16.74Zm27.91,0a11.17,11.17,0,1,1-11.17-11.16A11.17,11.17,0,0,1,459,278.57Z"/><path class="cls-4" d="M452,274.91a2.79,2.79,0,1,1-5.58,0C446.4,271.19,452,271.19,452,274.91Z"/><path class="cls-4" d="M509.2,275.78a16.75,16.75,0,1,0-16.74,16.75,16.73,16.73,0,0,0,16.74-16.75Zm-27.91,0A11.16,11.16,0,1,1,492.46,287a11.15,11.15,0,0,1-11.17-11.17Z"/><path class="cls-4" d="M496.64,272.12a2.79,2.79,0,1,1-5.58,0C491.06,268.4,496.64,268.4,496.64,272.12Z"/><path class="cls-4" d="M520.37,277.18a16.75,16.75,0,1,0,16.75-16.75,16.74,16.74,0,0,0-16.75,16.75Zm27.91,0A11.16,11.16,0,1,1,537.12,266a11.16,11.16,0,0,1,11.16,11.17Z"/><path class="cls-4" d="M541.3,273.51a2.79,2.79,0,1,1-5.58,0C535.72,269.8,541.3,269.8,541.3,273.51Z"/><path class="cls-4" d="M439.42,313.46a16.75,16.75,0,1,0-16.75,16.75,16.74,16.74,0,0,0,16.75-16.75Zm-16.75,11.17a11.17,11.17,0,1,1,11.17-11.17,11.16,11.16,0,0,1-11.17,11.17Z"/><path class="cls-4" d="M426.86,309.8a2.79,2.79,0,1,1-5.58,0C421.28,306.08,426.86,306.08,426.86,309.8Z"/><path class="cls-4" d="M468.73,296.72a16.75,16.75,0,1,0,16.75,16.75,16.73,16.73,0,0,0-16.75-16.75Zm0,27.91a11.16,11.16,0,1,1,11.17-11.17,11.16,11.16,0,0,1-11.17,11.17Z"/><path class="cls-4" d="M472.92,309.8c0,3.73-5.59,3.73-5.59,0S472.92,306.08,472.92,309.8Z"/><path class="cls-4" d="M527.1,314.37a16.75,16.75,0,1,0-16.75,16.75,16.78,16.78,0,0,0,16.75-16.75Zm-16.75,11.16h0a11.17,11.17,0,1,1,11.16-11.17h0a11.19,11.19,0,0,1-11.16,11.17Z"/><path class="cls-4" d="M514.54,310.71c0,3.72-5.59,3.72-5.59,0S514.54,307,514.54,310.71Z"/><path class="cls-4" d="M552.47,302.3a16.75,16.75,0,1,0,16.75,16.75,16.73,16.73,0,0,0-16.75-16.75Zm0,27.91a11.17,11.17,0,1,1,11.16-11.16,11.15,11.15,0,0,1-11.16,11.16Z"/><path class="cls-4" d="M556.66,315.38c0,3.73-5.59,3.73-5.59,0S556.66,311.66,556.66,315.38Z"/><path class="cls-4" d="M485.48,334a16.74,16.74,0,1,0,16.75,16.75A16.72,16.72,0,0,0,485.48,334Zm0,27.91a11.17,11.17,0,1,1,11.16-11.17,11.17,11.17,0,0,1-11.16,11.17Z"/><path class="cls-4" d="M489.67,347.05c0,3.72-5.59,3.72-5.59,0S489.67,343.33,489.67,347.05Z"/><path class="cls-4" d="M528.74,335.8a16.74,16.74,0,1,0,16.75,16.74,16.74,16.74,0,0,0-16.75-16.74Zm0,27.91a11.16,11.16,0,1,1,11.17-11.17,11.15,11.15,0,0,1-11.17,11.17Z"/><path class="cls-4" d="M532.93,348.88c0,3.72-5.58,3.72-5.58,0S532.93,345.16,532.93,348.88Z"/><path class="cls-4" d="M443.61,334.4a16.75,16.75,0,1,0,16.75,16.75,16.73,16.73,0,0,0-16.75-16.75Zm0,27.91a11.17,11.17,0,1,1,11.16-11.16,11.15,11.15,0,0,1-11.16,11.16Z"/><path class="cls-4" d="M447.79,347.48a2.79,2.79,0,1,1-5.58,0C442.21,343.76,447.79,343.76,447.79,347.48Z"/></g><path class="cls-4" d="M848.94,503.16c.26-4.63-1-8.48-3.85-10.79-3.09-2.57-7.2-3.08-9.77-3.08-.77-2.57-2.82-6.93-6.16-9a8.16,8.16,0,0,0-6.93-.26c-.26,0-.51.26-.77.51-22.86,21.31-66.77,40.58-110.93,58.29a12.16,12.16,0,0,0-8.22,3.6c-2.31,2.3-4.63,6.42-2.83,13.61,1.29,5.39,5.14,11.56,9.76,17.21L691,580.7a13.47,13.47,0,0,0-8.22,3.59,11.66,11.66,0,0,0-3.34,8.73c0,9,7.71,19.78,14.89,26.71,5.39,11.56,16.18,23.63,25.68,27.73a18.84,18.84,0,0,0,6.67,1.55,11.17,11.17,0,0,0,6.42-2.06c39.82-13.09,80.65-38.76,112-69.83a5.83,5.83,0,0,0,.77-1.29c.77-4.62,0-8.47-2.57-11.29-2.57-3.09-6.67-3.86-9.24-4.12-.51-2.83-1.8-7.19-4.88-9.5a9.54,9.54,0,0,0-2.83-1.28,28.14,28.14,0,0,1,2.57-3.08,3.59,3.59,0,0,0,.51-1.55c.26-5.65-1.79-10-5.9-12.07a284.37,284.37,0,0,0,24.91-28,6.21,6.21,0,0,0,.51-1.79Zm-24.39-18.24a2.54,2.54,0,0,1,2.05.26c2.06,1,3.34,4.37,3.85,6.43-17,19.25-53.41,44.16-100.66,68.3.51-5.39-2.06-11.56-5.91-15.66a28.2,28.2,0,0,0-4.37-3.34c41.86-16.95,82.69-35.44,105-56ZM706.17,546a7.71,7.71,0,0,1,5.65-2,11.76,11.76,0,0,1,8.21,3.85c4.63,4.62,5.91,12.58,2.83,15.66,0,.26-.26.26-.26.51s-.26.26-.26.52v1.53c0,.26,0,.26.26.51a.25.25,0,0,0,.26.26.25.25,0,0,0,.26.26c.26.26.26.26.51.26l.26.26h1.54c.26,0,.26,0,.51-.26a27.76,27.76,0,0,0,3.86-2.05,15.28,15.28,0,0,1,11.29,3.59c4.88,4.11,5.65,9.5,3.85,13.09-3.34,1-6.93,2.06-10.52,3.08-5.91-1.79-12.84-6.93-18.74-12.84-5.14-5.65-9.5-12.07-10.79-17.46-1.29-3.84-.78-6.66,1.28-8.72Zm-2.06,39.8a18.42,18.42,0,0,0-4.36-3.34l13.35-5.39a61.73,61.73,0,0,0,13.35,10.28c-5.9,1.54-12.06,3.34-18,4.87a21.94,21.94,0,0,0-4.37-6.42Zm-17.72,2.06a7.09,7.09,0,0,1,5.91-2.06,11.82,11.82,0,0,1,8.22,3.86,21.13,21.13,0,0,1,2.83,3.85,11.65,11.65,0,0,0-7.71,2.57c-2.31,1.79-5.13,5.39-4.62,12.07-4.11-5.65-6.42-11.05-6.42-15.15a6.62,6.62,0,0,1,1.79-5.14Zm35.69,55c-11-4.62-24.65-22.34-25.93-34.41-.51-3.85.26-6.67,2.57-8.22a7.19,7.19,0,0,1,4.62-1.54h1.29a12.15,12.15,0,0,1,7.7,4.87,16.56,16.56,0,0,1,3.08,11.3,7.3,7.3,0,0,1-2.31,4.63l-.26.26c-.26.26-.26.26-.26.51v.26c0,.26-.26.51-.26.77v1a.25.25,0,0,0,.26.26c0,.26,0,.26.26.51l.26.26c.26.26.26.26.51.26h.26c.26,0,.26.26.52.26h1c1.28-.51,2.83-1,4.11-1.54h1.8a16.15,16.15,0,0,1,9.76,5.91,11.35,11.35,0,0,1,2.57,8.73,8,8,0,0,1-2.83,5.63c-2.06,1.54-5.14,1.8-8.74.26ZM841,574c-29.28,28.76-66,52.38-102.46,65.74.26-.51.26-1.28.52-1.8a11.44,11.44,0,0,0-.26-5.13c2.82-1,5.64-2.31,8.72-3.6a2.53,2.53,0,1,0-2-4.62c-2.83,1.28-5.65,2.31-8.48,3.34-.51-.77-1-1.8-1.54-2.57a21.41,21.41,0,0,0-7.19-6.16c32.62-11.82,79.87-31.84,104.52-53.93,1.55,0,4.88.51,6.68,2.57,1.28,1.28,1.79,3.34,1.54,6.16ZM829.16,561.7c-19.26,17.21-58.8,37-108.87,54.95,0-.51.26-.77.26-1.28.77-4.88-1-10.78-4.12-14.89a13.58,13.58,0,0,0-3.85-3.85C756,585.33,798.86,572.24,824,554.51a2.5,2.5,0,0,1,2.06.51c1.8,1,2.83,4.38,3.08,6.68Zm-12.58-8.47C805,560.42,790.39,567.09,773.7,573a304,304,0,0,0,45.71-36.21c3.34.77,4.88,3.34,4.88,7.2-2.82,3.34-5.14,6.42-7.71,9.24Zm-66,27.22a15.92,15.92,0,0,0-.78-6.94c3.6-1.79,6.94-3.85,10.53-5.9a2.64,2.64,0,0,0-2.57-4.62c-3.34,2-6.93,3.85-10.27,5.65a46,46,0,0,0-3.34-3.86,26.82,26.82,0,0,0-6.42-3.85c30.82-15.4,75.25-41.33,97.08-66.51,1.54,0,4.88,0,6.93,1.8a8.21,8.21,0,0,1,2.06,5.91C818.9,534,785,562.48,750.59,580.45Z"/><path class="cls-4" d="M798.35,533.2A245.35,245.35,0,0,1,771.9,554a2.52,2.52,0,0,0-.77,3.59,2.36,2.36,0,0,0,2.06,1,3.66,3.66,0,0,0,1.54-.52,295.05,295.05,0,0,0,27-21.05,2.5,2.5,0,0,0,.26-3.6,2.74,2.74,0,0,0-3.6-.25Z"/><path class="cls-4" d="M767.28,558.37a2.8,2.8,0,0,0-2.83.51c-.26.26-.51.51-.51.77a1.52,1.52,0,0,0-.26,1,2.33,2.33,0,0,0,.77,1.8c.26.26.51.51.77.51s.78.26,1,.26a2.65,2.65,0,0,0,2.57-2.57,2.3,2.3,0,0,0-.78-1.79c-.25,0-.5-.25-.76-.51Z"/><path class="cls-4" d="M791.68,599.2a262.38,262.38,0,0,1-34.67,20,2.56,2.56,0,0,0-1.28,3.34,2.46,2.46,0,0,0,2.31,1.55,1.5,1.5,0,0,0,1-.26,303.38,303.38,0,0,0,35.18-20.29A2.52,2.52,0,0,0,795,600a2.28,2.28,0,0,0-3.33-.77Z"/><g class="cls-5"><path class="cls-4" d="M536.49,511.94a3.09,3.09,0,0,0,0-4.27c-34.75-34.75-91.14-34.75-126.17,0a89.38,89.38,0,0,0,0,126.17,3.21,3.21,0,0,0,2.27.86,3.25,3.25,0,0,0,2.28-.86ZM416,609.35a67.5,67.5,0,0,1-10.25-24.78,8.78,8.78,0,0,1,8.54-10.82h38.17a20.72,20.72,0,0,0,4,9.69l-27.05,27A8.79,8.79,0,0,1,416,609.35Zm-10.54-52.69a65.43,65.43,0,0,1,10.25-24.78,8.63,8.63,0,0,1,13.39-1.14l27.05,27a20.69,20.69,0,0,0-4,9.69H414a8.93,8.93,0,0,1-8.55-10.82Zm29.34-43.58a71.18,71.18,0,0,1,24.78-10.54,8.93,8.93,0,0,1,10.82,8.55v38.16a20.73,20.73,0,0,0-9.69,4l-27.05-27.06c-3.71-3.7-3.42-10.25,1.14-13.1Zm78.61,13.39-27.06,27.06a20.61,20.61,0,0,0-9.68-4V511.09a8.79,8.79,0,0,1,10.82-8.55,66.2,66.2,0,0,1,24.78,10.54,8.79,8.79,0,0,1,1.14,13.39Zm-50.7,33.32a15.51,15.51,0,0,1,19.36-2l-21.35,21.36A15.53,15.53,0,0,1,462.72,559.79ZM412.88,627A82.82,82.82,0,0,1,529.94,510l-8,8a14.52,14.52,0,0,0-6.26-10,78.5,78.5,0,0,0-27.06-11.4,15.29,15.29,0,0,0-15.09,5.7,15.34,15.34,0,0,0-15.1-5.7A73.25,73.25,0,0,0,431.4,508a14.61,14.61,0,0,0-6.27,14.24,14.61,14.61,0,0,0-14.24,6.27,73.25,73.25,0,0,0-11.4,27,15.34,15.34,0,0,0,5.42,15.1,14.6,14.6,0,0,0-5.42,15.09,73.3,73.3,0,0,0,11.4,27.06,14.52,14.52,0,0,0,10,6.26Z"/><path class="cls-4" d="M531.07,536.44a2.49,2.49,0,0,0-2.56,1.71C526.8,541.29,518,557.23,518,563.5a13.39,13.39,0,0,0,26.77,0c0-6.27-8.83-22.22-10.54-25.35-1.13-1.14-2-1.71-3.13-1.71Zm0,34.17A7,7,0,0,1,524,563.5c0-2.56,3.7-10.54,7.11-17.37,3.42,6.83,7.12,14.8,7.12,17.37A7.22,7.22,0,0,1,531.07,570.61Z"/><path class="cls-4" d="M494.33,576.31a2.48,2.48,0,0,0-2.56,1.71c-1.71,3.14-10.54,19.08-10.54,25.35a13.39,13.39,0,0,0,26.77,0c0-6.27-8.83-22.22-10.54-25.35a3.91,3.91,0,0,0-3.13-1.71Zm0,34.18a7.05,7.05,0,0,1-7.12-7.12c0-2.56,3.71-10.54,7.12-17.37,3.42,6.83,7.12,14.81,7.12,17.37A7.23,7.23,0,0,1,494.33,610.49Z"/><path class="cls-4" d="M529.36,606.5a2.49,2.49,0,0,0-2.56,1.71c-1.71,3.14-10.54,19.09-10.54,25.35a13.39,13.39,0,0,0,26.77,0c0-6.26-8.83-22.22-10.54-25.35-1.13-1.14-2-1.71-3.13-1.71Zm0,33.89a7,7,0,0,1-7.11-7.11c0-2.56,3.7-10.54,7.11-17.37,3.42,6.83,7.12,14.8,7.12,17.37A7,7,0,0,1,529.36,640.39Z"/></g><path class="cls-4" d="M720.11,294.38v.21a12.89,12.89,0,0,0,4.06,9.37,18.2,18.2,0,0,0,14.16,29.68h20.82v41.65h31.24V333.64h31.23a18.22,18.22,0,0,0,11.26-32.54,12.92,12.92,0,0,0,1.76-6.51,12.61,12.61,0,0,0-1.31-5.59,15.58,15.58,0,0,0-4-27.38,20.87,20.87,0,0,0-18.34-19,15.65,15.65,0,0,0-15.42-13.15,13.82,13.82,0,0,0-2.64.26,20.83,20.83,0,0,0-37.11,1.5,15.41,15.41,0,0,0-7.1-1.76,15.63,15.63,0,0,0-15.42,13.15,20.86,20.86,0,0,0-18.42,20.69c0,.68,0,1.37.1,2.05a15.62,15.62,0,0,0,5.11,29Zm65.07,75.7H764.36V333.64h20.82ZM718.83,269.34a2.58,2.58,0,0,0,1.57-2.92,15.64,15.64,0,0,1,15.32-18.68,2.58,2.58,0,0,0,1.84-.76,2.61,2.61,0,0,0,.77-1.84,10.4,10.4,0,0,1,10.41-10.41,10.22,10.22,0,0,1,6.73,2.54,2.56,2.56,0,0,0,2.46.51,2.59,2.59,0,0,0,1.75-1.81,15.62,15.62,0,0,1,29.47-2.12,2.6,2.6,0,0,0,3.21,1.46,10.18,10.18,0,0,1,3.23-.58A10.41,10.41,0,0,1,806,245.14a2.59,2.59,0,0,0,2.61,2.6,15.61,15.61,0,0,1,15.61,15.56c0,.06,0,.26,0,.32a2.61,2.61,0,0,0,2.08,2.55,10.38,10.38,0,0,1,2.32,19.6,2.63,2.63,0,0,0-1.43,1.77,2.59,2.59,0,0,0,.51,2.21,7.68,7.68,0,0,1-.42,10.2,2.6,2.6,0,0,0,.62,4.07,13,13,0,0,1-6.27,24.41H738.33a13,13,0,0,1-8.54-22.82,2.59,2.59,0,0,0,.88-2.23,2.64,2.64,0,0,0-1.32-2,7.55,7.55,0,0,1-3.75-8.76,2.59,2.59,0,0,0-2.51-3.26H723a.63.63,0,0,0-.3,0,10.42,10.42,0,0,1-3.88-20.05Z"/><path class="cls-4" d="M777.37,250.34A2.59,2.59,0,0,1,780,253h5.21a2.6,2.6,0,1,1,5.2,0h5.21a7.77,7.77,0,0,0-13-5.78,7.78,7.78,0,0,0-13,5.78h5.21a2.6,2.6,0,0,1,2.6-2.61Z"/><path class="cls-4" d="M746.13,258.15a2.59,2.59,0,0,1,2.61,2.6h5.2a2.61,2.61,0,0,1,5.21,0h5.2a7.77,7.77,0,0,0-13-5.78,7.77,7.77,0,0,0-13,5.78h5.2a2.61,2.61,0,0,1,2.6-2.6Z"/><path class="cls-4" d="M753.94,268.56h5.21a2.61,2.61,0,0,1,5.21,0h5.2a2.61,2.61,0,0,1,5.21,0H780a7.77,7.77,0,0,0-13-5.78,7.78,7.78,0,0,0-13,5.78Z"/><path class="cls-4" d="M800.8,276.37a2.6,2.6,0,0,1,5.2,0h5.21a2.6,2.6,0,0,1,5.2,0h5.21a7.77,7.77,0,0,0-13-5.78,7.78,7.78,0,0,0-13,5.78Z"/><path class="cls-4" d="M746.13,284.18a2.59,2.59,0,0,1,2.61,2.6h5.2a2.61,2.61,0,0,1,5.21,0h5.2a7.77,7.77,0,0,0-13-5.77,7.77,7.77,0,0,0-13,5.77h5.2a2.61,2.61,0,0,1,2.6-2.6Z"/><path class="cls-4" d="M803.4,292a7.79,7.79,0,0,0-5.21,2,7.77,7.77,0,0,0-13,5.78h5.21a2.6,2.6,0,1,1,5.2,0h5.21a2.6,2.6,0,0,1,5.2,0h5.21A7.81,7.81,0,0,0,803.4,292Z"/><path class="cls-4" d="M774.77,299.8a7.8,7.8,0,0,0-7.81,7.81h5.2a2.61,2.61,0,1,1,5.21,0h5.21a2.6,2.6,0,1,1,5.2,0H793a7.78,7.78,0,0,0-13-5.78,7.72,7.72,0,0,0-5.2-2Z"/><path class="cls-4" d="M731.75,318.92c2,2.86,6,4.31,11.78,4.31h18.22V318H743.53c-5.18,0-6.94-1.31-7.53-2.1a2.79,2.79,0,0,1-.39-2.33l-2.49-.78-2.47-.82A8,8,0,0,0,731.75,318.92Z"/><path class="cls-4" d="M767,318h5.2v5.21H767Z"/><path class="cls-4" d="M730.26,267.4a10,10,0,0,1,0-8.1l-2.35-1.15L725.58,257a15.24,15.24,0,0,0,0,12.74Z"/><path class="cls-4" d="M818.18,310.07a9,9,0,0,1,6,7.95h5.21c0-9.57-9.2-12.76-9.59-12.89Z"/><path class="cls-4" d="M813.81,259.27a3.93,3.93,0,0,1,.15,3.27l4.94,1.64h0a9,9,0,0,0-.52-7.42,15.36,15.36,0,0,0-9.12-6.34L808,255.47h0a10.35,10.35,0,0,1,5.82,3.8Z"/><text class="cls-6" transform="translate(463.32 132.72)">BOTANICALS DES TURICUM</text><text class="cls-6" transform="translate(377 424.72)">PFEFFERKÖRNER</text><text class="cls-6" transform="translate(363.5 691.72)">ZITRONENSCHALE</text><text class="cls-6" transform="translate(703.07 691.72)">SÜSSHOLZ</text><text class="cls-6" transform="translate(688.49 424.72)">LINDENBLÜTE</text></svg>