<?xml version="1.0" encoding="utf-8"?>
<!-- Generator: Adobe Illustrator 24.3.0, SVG Export Plug-In . SVG Version: 6.00 Build 0)  -->
<svg version="1.1" id="Ebene_1" xmlns="http://www.w3.org/2000/svg" xmlns:xlink="http://www.w3.org/1999/xlink" x="0px" y="0px"
	 viewBox="0 0 1366 899" style="enable-background:new 0 0 1366 899;" xml:space="preserve">
<style type="text/css">
	.st0{fill:#FBF5E0;}
	.st1{fill:#1F2B33;}
	.st2{font-family:'Pacifico-Regular';}
	.st3{font-size:41.7286px;}
	.st4{clip-path:url(#SVGID_2_);}
	.st5{clip-path:url(#SVGID_4_);}
	.st6{font-family:'AzoSans-Regular';}
	.st7{font-size:23.496px;}
</style>
<ellipse class="st0" cx="683" cy="449.1" rx="454.9" ry="448.1"/>
<g>
	<text transform="matrix(1 0 0 1 477.449 198.5891)" class="st1 st2 st3">Botanicals des Turicum</text>
	<g>
		<defs>
			<rect id="SVGID_1_" x="481.4" y="282.4" width="144.5" height="144.5"/>
		</defs>
		<clipPath id="SVGID_2_">
			<use xlink:href="#SVGID_1_"  style="overflow:visible;"/>
		</clipPath>
		<g class="st4">
			<path class="st1" d="M519.7,325c7.5,0,13.6-6.1,13.6-13.5s-6.1-13.6-13.5-13.6c-7.5,0-13.6,6.1-13.6,13.5c0,0,0,0,0,0
				C506.2,318.9,512.3,325,519.7,325z M519.7,302.4c5,0,9,4,9,9c0,5-4,9-9,9c-5,0-9-4-9-9c0,0,0,0,0,0
				C510.7,306.5,514.8,302.4,519.7,302.4L519.7,302.4z"/>
			<path class="st1" d="M523.1,308.5c0,3-4.5,3-4.5,0C518.6,305.5,523.1,305.5,523.1,308.5z"/>
			<path class="st1" d="M553.6,322c7.5,0,13.6-6.1,13.6-13.6c0-7.5-6.1-13.6-13.6-13.6s-13.6,6.1-13.6,13.6l0,0
				C540.1,315.9,546.1,322,553.6,322C553.6,322,553.6,322,553.6,322z M553.6,299.4c5,0,9,4,9,9s-4,9-9,9c-5,0-9-4-9-9
				C544.6,303.4,548.6,299.4,553.6,299.4L553.6,299.4z"/>
			<path class="st1" d="M557,305.4c0,3-4.5,3-4.5,0S557,302.4,557,305.4z"/>
			<path class="st1" d="M586.4,323.1c7.5,0,13.6-6.1,13.6-13.6c0-7.5-6.1-13.6-13.6-13.6c-7.5,0-13.6,6.1-13.6,13.6c0,0,0,0,0,0
				C572.8,317,578.9,323.1,586.4,323.1C586.4,323.1,586.4,323.1,586.4,323.1z M586.4,300.5c5,0,9,4.1,9,9c0,5-4.1,9-9,9
				c-5,0-9-4-9-9C577.3,304.6,581.4,300.5,586.4,300.5C586.4,300.5,586.4,300.5,586.4,300.5L586.4,300.5z"/>
			<path class="st1" d="M589.8,306.6c0,3-4.5,3-4.5,0C585.3,303.6,589.8,303.6,589.8,306.6z"/>
			<path class="st1" d="M508.5,336.3c0-7.5-6.1-13.5-13.6-13.5c-7.5,0-13.5,6.1-13.5,13.6c0,7.5,6.1,13.5,13.5,13.5
				C502.4,349.8,508.5,343.8,508.5,336.3z M485.9,336.3c0-5,4-9,9-9c5,0,9,4,9,9c0,5-4,9-9,9c0,0,0,0,0,0
				C489.9,345.3,485.9,341.3,485.9,336.3z"/>
			<path class="st1" d="M498.3,333.3c0,3-4.5,3-4.5,0S498.3,330.3,498.3,333.3z"/>
			<path class="st1" d="M514.1,341.2c0,7.5,6.1,13.6,13.5,13.6s13.6-6.1,13.6-13.5c0-7.5-6.1-13.6-13.5-13.6c0,0,0,0,0,0
				C520.2,327.6,514.1,333.6,514.1,341.2C514.1,341.1,514.1,341.1,514.1,341.2z M536.7,341.2c0,5-4,9-9,9c-5,0-9-4-9-9c0-5,4-9,9-9
				c0,0,0,0,0,0C532.7,332.1,536.7,336.1,536.7,341.2C536.7,341.1,536.7,341.1,536.7,341.2L536.7,341.2z"/>
			<path class="st1" d="M531.1,338.2c0,1.2-1,2.3-2.3,2.3c-1.2,0-2.3-1-2.3-2.3c0,0,0,0,0,0C526.5,335.2,531.1,335.2,531.1,338.2z"
				/>
			<path class="st1" d="M577.3,338.9c0-7.5-6.1-13.6-13.6-13.6s-13.6,6.1-13.6,13.6c0,7.5,6.1,13.6,13.6,13.6c0,0,0,0,0,0
				C571.3,352.5,577.3,346.4,577.3,338.9C577.3,338.9,577.3,338.9,577.3,338.9z M554.8,338.9c0-5,4.1-9,9.1-9c5,0,9,4.1,9,9.1
				c0,5-4.1,9-9,9C558.8,348,554.8,343.9,554.8,338.9C554.8,339,554.8,338.9,554.8,338.9L554.8,338.9z"/>
			<path class="st1" d="M567.2,335.9c0,1.2-1,2.3-2.3,2.3s-2.3-1-2.3-2.3c0,0,0,0,0,0C562.7,332.9,567.2,332.9,567.2,335.9z"/>
			<path class="st1" d="M586.4,340c0,7.5,6.1,13.6,13.6,13.6c7.5,0,13.6-6.1,13.6-13.6c0-7.5-6.1-13.6-13.6-13.6
				C592.5,326.5,586.4,332.5,586.4,340C586.4,340,586.4,340,586.4,340z M609,340c0,5-4.1,9-9,9c-5,0-9-4.1-9-9c0-5,4-9,9-9
				C604.9,331,609,335,609,340C609,340,609,340,609,340L609,340z"/>
			<path class="st1" d="M603.3,337.1c0,1.2-1,2.3-2.3,2.3c-1.2,0-2.3-1-2.3-2.3C598.8,334.1,603.3,334.1,603.3,337.1z"/>
			<path class="st1" d="M520.9,369.4c0-7.5-6.1-13.6-13.6-13.6c-7.5,0-13.6,6.1-13.6,13.6c0,7.5,6.1,13.6,13.6,13.6l0,0
				C514.8,382.9,520.9,376.9,520.9,369.4C520.9,369.4,520.9,369.4,520.9,369.4z M507.3,378.4c-5,0-9-4-9-9s4-9,9-9c5,0,9,4,9,9
				C516.4,374.4,512.3,378.4,507.3,378.4C507.3,378.4,507.3,378.4,507.3,378.4z"/>
			<path class="st1" d="M510.7,366.4c0,1.2-1,2.3-2.3,2.3s-2.3-1-2.3-2.3c0,0,0,0,0,0C506.2,363.4,510.7,363.4,510.7,366.4z"/>
			<path class="st1" d="M544.6,355.8c-7.5,0-13.6,6.1-13.6,13.6c0,7.5,6.1,13.6,13.6,13.6s13.6-6.1,13.6-13.6l0,0
				C558.2,361.9,552.1,355.8,544.6,355.8C544.6,355.8,544.6,355.8,544.6,355.8z M544.6,378.4c-5,0-9-4.1-9-9s4.1-9,9-9c5,0,9,4,9,9
				C553.6,374.4,549.6,378.4,544.6,378.4C544.6,378.4,544.6,378.4,544.6,378.4z"/>
			<path class="st1" d="M548,366.4c0,3-4.5,3-4.5,0C543.5,363.4,548,363.4,548,366.4z"/>
			<path class="st1" d="M591.8,370.1c0-7.5-6.1-13.6-13.6-13.6s-13.6,6.1-13.6,13.6c0,7.5,6.1,13.6,13.6,13.6l0,0
				C585.8,383.7,591.8,377.6,591.8,370.1z M578.3,379.1L578.3,379.1c-5,0-9-4-9-9c0-5,4-9,9-9s9,4,9,9c0,0,0,0,0,0l0,0
				C587.3,375.1,583.3,379.1,578.3,379.1L578.3,379.1z"/>
			<path class="st1" d="M581.7,367.2c0,3-4.5,3-4.5,0C577.1,364.1,581.7,364.2,581.7,367.2z"/>
			<path class="st1" d="M612.4,360.4c-7.5,0-13.6,6.1-13.6,13.6s6.1,13.6,13.6,13.6c7.5,0,13.6-6.1,13.6-13.6l0,0
				C625.9,366.4,619.9,360.4,612.4,360.4C612.4,360.4,612.4,360.4,612.4,360.4z M612.4,382.9c-5,0-9-4-9-9c0-5,4-9,9-9c5,0,9,4,9,9
				c0,0,0,0,0,0C621.4,378.9,617.4,382.9,612.4,382.9C612.4,382.9,612.4,382.9,612.4,382.9z"/>
			<path class="st1" d="M615.7,370.9c0,3-4.5,3-4.5,0S615.7,367.9,615.7,370.9z"/>
			<path class="st1" d="M558.2,386c-7.5,0-13.5,6.1-13.5,13.6c0,7.5,6.1,13.5,13.6,13.5c7.5,0,13.5-6.1,13.5-13.5
				C571.7,392.1,565.7,386,558.2,386C558.2,386,558.2,386,558.2,386z M558.2,408.6c-5,0-9-4-9-9c0-5,4-9,9-9c5,0,9,4,9,9
				c0,0,0,0,0,0C567.2,404.5,563.1,408.6,558.2,408.6z"/>
			<path class="st1" d="M561.5,396.6c0,3-4.5,3-4.5,0C557,393.6,561.5,393.6,561.5,396.6z"/>
			<path class="st1" d="M593.2,387.5c-7.5,0-13.5,6.1-13.5,13.6s6.1,13.5,13.6,13.5c7.5,0,13.5-6.1,13.5-13.5
				C606.7,393.5,600.6,387.5,593.2,387.5C593.2,387.5,593.2,387.5,593.2,387.5z M593.2,410c-5,0-9-4.1-9-9c0-5,4.1-9,9-9
				c5,0,9,4,9,9C602.2,406,598.2,410,593.2,410C593.2,410,593.2,410,593.2,410z"/>
			<path class="st1" d="M596.5,398c0,3-4.5,3-4.5,0S596.5,395,596.5,398z"/>
			<path class="st1" d="M524.3,386.3c-7.5,0-13.6,6.1-13.6,13.6c0,7.5,6.1,13.6,13.6,13.6c7.5,0,13.6-6.1,13.6-13.6
				C537.8,392.4,531.8,386.3,524.3,386.3C524.3,386.3,524.3,386.3,524.3,386.3z M524.3,408.9c-5,0-9-4-9-9c0-5,4-9,9-9c5,0,9,4,9,9
				c0,0,0,0,0,0C533.3,404.9,529.3,408.9,524.3,408.9C524.3,408.9,524.3,408.9,524.3,408.9z"/>
			<path class="st1" d="M527.7,396.9c0,1.2-1,2.3-2.3,2.3c-1.2,0-2.3-1-2.3-2.3c0,0,0,0,0,0C523.1,393.9,527.7,393.9,527.7,396.9z"
				/>
		</g>
	</g>
	<g>
		<path class="st1" d="M888.8,564.9c0.2-3.4-0.7-6.3-2.9-8c-2.3-1.9-5.4-2.3-7.3-2.3c-0.6-1.9-2.1-5.2-4.6-6.7
			c-1.6-0.8-3.5-0.9-5.2-0.2c-0.2,0-0.4,0.2-0.6,0.4c-17,15.9-49.7,30.2-82.5,43.4c-2.3,0.1-4.5,1-6.1,2.7
			c-1.7,1.7-3.4,4.8-2.1,10.1c1,4,3.8,8.6,7.3,12.8l-13.6,5.5c-2.3,0.2-4.4,1.1-6.1,2.7c-1.7,1.7-2.6,4.1-2.5,6.5
			c0,6.7,5.7,14.7,11.1,19.9c4,8.6,12,17.6,19.1,20.6c1.6,0.7,3.3,1.1,5,1.2c1.7,0,3.4-0.5,4.8-1.5c29.6-9.7,60-28.8,83.3-52
			c0.2-0.3,0.4-0.6,0.6-1c0.6-3.4,0-6.3-1.9-8.4c-1.9-2.3-5-2.9-6.9-3.1c-0.4-2.1-1.3-5.3-3.6-7.1c-0.6-0.4-1.4-0.8-2.1-1
			c0.6-0.8,1.2-1.6,1.9-2.3c0.2-0.4,0.3-0.7,0.4-1.2c0.2-4.2-1.3-7.4-4.4-9c6.6-6.5,12.8-13.5,18.5-20.8
			C888.6,565.8,888.7,565.4,888.8,564.9L888.8,564.9z M870.6,551.4c0.5-0.2,1.1-0.1,1.5,0.2c1.5,0.7,2.5,3.3,2.9,4.8
			c-12.6,14.3-39.7,32.9-74.9,50.8c0.4-4-1.5-8.6-4.4-11.7c-1-0.9-2.1-1.8-3.3-2.5C823.6,580.4,854,566.6,870.6,551.4L870.6,551.4z
			 M782.6,596.8c1.1-1,2.7-1.6,4.2-1.5c2.3,0.1,4.5,1.1,6.1,2.9c3.4,3.4,4.4,9.4,2.1,11.7c0,0.2-0.2,0.2-0.2,0.4
			c0,0.2-0.2,0.2-0.2,0.4v1.1c0,0.2,0,0.2,0.2,0.4c0,0.1,0.1,0.2,0.2,0.2c0,0,0,0,0,0c0,0.1,0.1,0.2,0.2,0.2c0,0,0,0,0,0
			c0.2,0.2,0.2,0.2,0.4,0.2l0.2,0.2h1.1c0.2,0,0.2,0,0.4-0.2c1-0.4,2-0.9,2.9-1.5c3-0.3,6.1,0.7,8.4,2.7c3.6,3.1,4.2,7.1,2.9,9.7
			c-2.5,0.7-5.2,1.5-7.8,2.3c-4.4-1.3-9.6-5.2-13.9-9.6c-3.8-4.2-7.1-9-8-13C780.7,600.5,781,598.4,782.6,596.8L782.6,596.8z
			 M781,626.4c-1-1-2-1.8-3.2-2.5l9.9-4c2.9,3,6.3,5.6,9.9,7.6c-4.4,1.1-9,2.5-13.4,3.6C783.5,629.4,782.4,627.8,781,626.4
			L781,626.4z M767.9,627.9c1.1-1.2,2.8-1.7,4.4-1.5c2.3,0.1,4.5,1.1,6.1,2.9c0.8,0.9,1.5,1.8,2.1,2.9c-2.1-0.1-4.1,0.6-5.7,1.9
			c-1.7,1.3-3.8,4-3.4,9c-3.1-4.2-4.8-8.2-4.8-11.3C766.4,630.4,766.9,629,767.9,627.9L767.9,627.9z M794.4,668.9
			c-8.2-3.4-18.3-16.6-19.3-25.6c-0.4-2.9,0.2-5,1.9-6.1c1-0.8,2.2-1.2,3.4-1.1h1c2.3,0.4,4.4,1.7,5.7,3.6c1.8,2.4,2.6,5.4,2.3,8.4
			c-0.1,1.3-0.7,2.5-1.7,3.4l-0.2,0.2c-0.2,0.2-0.2,0.2-0.2,0.4v0.2c0,0.2-0.2,0.4-0.2,0.6v0.7c0,0.1,0.1,0.2,0.2,0.2c0,0,0,0,0,0
			c0,0.2,0,0.2,0.2,0.4l0.2,0.2c0.2,0.2,0.2,0.2,0.4,0.2h0.2c0.2,0,0.2,0.2,0.4,0.2h0.7c1-0.4,2.1-0.7,3.1-1.1h1.3
			c2.9,0.5,5.5,2.1,7.3,4.4c1.5,1.8,2.2,4.2,1.9,6.5c-0.1,1.6-0.9,3.1-2.1,4.2C799.4,669.8,797.1,670,794.4,668.9L794.4,668.9z
			 M882.9,617.6c-21.8,21.4-49.1,39-76.2,48.9c0.2-0.4,0.2-1,0.4-1.3c0.2-1.3,0.2-2.6-0.2-3.8c2.1-0.7,4.2-1.7,6.5-2.7
			c1-0.3,1.5-1.4,1.2-2.4c-0.3-1-1.4-1.5-2.4-1.2c-0.1,0-0.2,0.1-0.3,0.2c-2.1,1-4.2,1.7-6.3,2.5c-0.4-0.6-0.7-1.3-1.1-1.9
			c-1.4-1.9-3.2-3.5-5.3-4.6c24.3-8.8,59.4-23.7,77.8-40.1c1.2,0,3.6,0.4,5,1.9C882.7,614,883.1,615.5,882.9,617.6L882.9,617.6z
			 M874.1,608.5c-14.3,12.8-43.7,27.5-81,40.9c0-0.4,0.2-0.6,0.2-1c0.6-3.6-0.7-8-3.1-11.1c-0.8-1.1-1.7-2.1-2.9-2.9
			c32.3-8.4,64.2-18.1,82.9-31.3c0.5-0.1,1.1,0,1.5,0.4C873.1,604.2,873.9,606.8,874.1,608.5L874.1,608.5z M864.7,602.2
			c-8.6,5.3-19.5,10.3-31.9,14.7c12.2-7.9,23.6-16.9,34-26.9c2.5,0.6,3.6,2.5,3.6,5.4C868.4,597.8,866.6,600.1,864.7,602.2
			L864.7,602.2z M815.6,622.4c0.2-1.7,0-3.5-0.6-5.2c2.7-1.3,5.2-2.9,7.8-4.4c0.9-0.5,1.3-1.7,0.8-2.7c-0.5-0.9-1.7-1.3-2.7-0.8l0,0
			c-2.5,1.5-5.2,2.9-7.6,4.2c-0.8-1-1.6-2-2.5-2.9c-1.5-1.2-3.1-2.1-4.8-2.9c22.9-11.5,56-30.7,72.2-49.5c1.1,0,3.6,0,5.2,1.3
			c1.1,1.2,1.6,2.8,1.5,4.4C866.4,587.9,841.2,609.1,815.6,622.4L815.6,622.4z"/>
		<path class="st1" d="M851.2,587.3c-6.2,5.6-12.8,10.8-19.7,15.5c-0.9,0.5-1.2,1.7-0.6,2.6c0,0,0,0.1,0.1,0.1
			c0.3,0.5,0.9,0.8,1.5,0.7c0.4,0,0.8-0.2,1.1-0.4c7-4.8,13.7-10.1,20.1-15.7c0.8-0.7,0.9-1.8,0.2-2.6c0,0,0,0-0.1-0.1
			C853.1,586.7,852,586.6,851.2,587.3L851.2,587.3z"/>
		<path class="st1" d="M828,606c-0.7-0.3-1.5-0.1-2.1,0.4c-0.2,0.2-0.4,0.4-0.4,0.6c-0.1,0.2-0.2,0.5-0.2,0.7c0,0.5,0.2,1,0.6,1.3
			c0.2,0.2,0.4,0.4,0.6,0.4c0.2,0,0.6,0.2,0.7,0.2c1,0,1.9-0.9,1.9-1.9c0-0.5-0.2-1-0.6-1.3C828.4,606.4,828.2,606.2,828,606
			L828,606z"/>
		<path class="st1" d="M846.2,636.4c-8.2,5.6-16.8,10.6-25.8,14.9c-0.9,0.4-1.4,1.5-1,2.5c0.3,0.7,1,1.2,1.7,1.2
			c0.3,0,0.5,0,0.7-0.2c9.1-4.4,17.8-9.5,26.2-15.1c0.9-0.5,1.2-1.7,0.6-2.6c0,0,0,0,0-0.1c-0.4-0.8-1.5-1.1-2.3-0.7
			C846.3,636.3,846.2,636.4,846.2,636.4L846.2,636.4z"/>
	</g>
	<g>
		<defs>
			<rect id="SVGID_3_" x="483.9" y="538.6" width="133.7" height="133.7"/>
		</defs>
		<clipPath id="SVGID_4_">
			<use xlink:href="#SVGID_3_"  style="overflow:visible;"/>
		</clipPath>
		<g class="st5">
			<path class="st1" d="M609,563.3c0.9-1,0.9-2.5,0-3.5c-28.1-28.1-73.7-28.1-102.1,0c-28.1,28.2-28.1,73.9,0,102.1
				c0.5,0.5,1.2,0.7,1.8,0.7c0.7,0,1.3-0.2,1.8-0.7L609,563.3z M511.5,642.1c-4.1-6.1-6.9-12.9-8.3-20c-0.9-3.8,1.4-7.6,5.3-8.6
				c0.5-0.1,1.1-0.2,1.7-0.2H541c0.4,2.8,1.5,5.5,3.2,7.8L522.4,643c-2.8,2.8-7.3,2.8-10.1,0.1C512,642.8,511.8,642.4,511.5,642.1z
				 M503,599.5c1.4-7.2,4.2-14,8.3-20c2.2-3.2,6.5-4,9.7-1.9c0.4,0.3,0.8,0.6,1.1,1l21.9,21.8c-1.7,2.3-2.8,5-3.2,7.8h-30.9
				c-4-0.1-7.2-3.4-7.1-7.4C502.8,600.4,502.9,599.9,503,599.5L503,599.5z M526.7,564.2c6.1-4.1,12.9-7,20-8.5
				c3.9-0.8,7.7,1.6,8.6,5.5c0.1,0.5,0.2,0.9,0.2,1.4v30.9c-2.8,0.4-5.5,1.5-7.8,3.2l-21.9-21.9C522.8,571.8,523,566.5,526.7,564.2
				L526.7,564.2z M590.3,575.1L568.4,597c-2.3-1.7-5-2.9-7.8-3.2v-31.1c0-3.9,3.2-7.1,7.1-7.1c0.6,0,1.1,0.1,1.6,0.2
				c7.2,1.4,14,4.3,20.1,8.5c3.2,2.3,4,6.7,1.7,9.9C590.9,574.5,590.6,574.8,590.3,575.1L590.3,575.1z M549.3,602
				c4.2-4.2,10.7-4.8,15.7-1.6l-17.3,17.3C544.5,612.7,545.2,606.2,549.3,602L549.3,602z M509,656.4c-25.1-27.2-23.4-69.6,3.8-94.7
				c25.7-23.7,65.2-23.7,90.9,0l-6.5,6.5c-0.5-3.3-2.3-6.2-5.1-8.1c-6.7-4.4-14.1-7.6-21.9-9.2c-4.6-0.9-9.3,0.9-12.2,4.6
				c-2.9-3.7-7.6-5.5-12.2-4.6c-7.8,1.6-15.3,4.7-21.9,9.2c-3.8,2.5-5.7,7-5.1,11.5c-4.5-0.7-9,1.3-11.5,5.1
				c-4.5,6.6-7.7,14-9.2,21.8c-1,4.6,0.7,9.3,4.4,12.2c-3.8,2.8-5.5,7.6-4.4,12.2c1.6,7.8,4.7,15.3,9.2,21.9
				c1.9,2.8,4.8,4.6,8.1,5.1L509,656.4z"/>
			<path class="st1" d="M604.6,583.1c-0.9-0.1-1.8,0.5-2.1,1.4c-1.4,2.5-8.5,15.4-8.5,20.5c0.2,6,5.1,10.7,11.1,10.5
				c5.8-0.2,10.4-4.8,10.5-10.5c0-5.1-7.1-18-8.5-20.5C606.3,583.6,605.6,583.1,604.6,583.1L604.6,583.1z M604.6,610.8
				c-3.1,0-5.7-2.5-5.7-5.6c0,0,0-0.1,0-0.1c0-2.1,3-8.5,5.8-14.1c2.8,5.5,5.8,12,5.8,14.1C610.4,608.2,607.8,610.7,604.6,610.8z"/>
			<path class="st1" d="M574.9,615.4c-0.9-0.1-1.8,0.5-2.1,1.4c-1.4,2.5-8.5,15.4-8.5,20.5c0.2,6,5.1,10.7,11.1,10.5
				c5.8-0.2,10.4-4.8,10.5-10.5c0-5.1-7.1-18-8.5-20.5C576.9,615.9,575.9,615.4,574.9,615.4L574.9,615.4z M574.9,643
				c-3.2,0-5.7-2.5-5.8-5.6c0,0,0-0.1,0-0.1c0-2.1,3-8.5,5.8-14.1c2.8,5.5,5.8,12,5.8,14.1C580.6,640.4,578.1,643,574.9,643z"/>
			<path class="st1" d="M603.2,639.8c-0.9-0.1-1.8,0.5-2.1,1.4c-1.4,2.5-8.5,15.4-8.5,20.5c0.2,6,5.1,10.7,11.1,10.5
				c5.8-0.2,10.4-4.8,10.5-10.5c0-5.1-7.1-18-8.5-20.5C604.9,640.3,604.2,639.8,603.2,639.8L603.2,639.8z M603.2,667.2
				c-3.1,0-5.7-2.4-5.8-5.6c0-0.1,0-0.1,0-0.2c0-2.1,3-8.5,5.8-14.1c2.8,5.5,5.8,12,5.8,14.1c0,3.1-2.4,5.7-5.6,5.8
				C603.4,667.2,603.3,667.2,603.2,667.2z"/>
		</g>
	</g>
	<g>
		<path class="st1" d="M788.4,353.9v0.2c0,2.9,1.2,5.6,3.3,7.6c-5.1,6.3-4.2,15.6,2.1,20.7c2.6,2.1,5.9,3.3,9.3,3.3H820v33.7h25.3
			v-33.7h25.3c8.1,0,14.7-6.6,14.7-14.7c0-4.5-2.1-8.8-5.6-11.6c0.9-1.6,1.4-3.4,1.4-5.3c0-1.6-0.4-3.1-1.1-4.5
			c5.7-4.1,6.9-11.9,2.9-17.6c-1.5-2.1-3.7-3.7-6.1-4.6c-0.7-8-6.9-14.4-14.8-15.4c-1-6.1-6.3-10.6-12.5-10.6
			c-0.7,0-1.4,0.1-2.1,0.2c-4.5-8.1-14.8-11-22.9-6.5c-3.1,1.7-5.6,4.4-7.1,7.7c-1.8-0.9-3.7-1.4-5.7-1.4c-6.2,0-11.5,4.5-12.5,10.6
			c-8.5,1-14.9,8.2-14.9,16.7c0,0.6,0,1.1,0.1,1.7c-6.1,3.4-8.2,11.1-4.8,17.2C781.4,351,784.6,353.3,788.4,353.9L788.4,353.9z
			 M841.1,415.2h-16.8v-29.5h16.8V415.2z M787.4,333.7c0.9-0.4,1.5-1.4,1.3-2.4c-1.4-6.9,3.1-13.5,10-14.9c0.8-0.2,1.6-0.2,2.4-0.2
			c0.6,0,1.1-0.2,1.5-0.6c0.4-0.4,0.6-0.9,0.6-1.5c0-4.6,3.8-8.4,8.4-8.4c0,0,0,0,0,0c2,0,3.9,0.7,5.4,2.1c0.5,0.5,1.3,0.6,2,0.4
			c0.7-0.2,1.2-0.8,1.4-1.5c1.8-6.7,8.7-10.8,15.5-9c3.8,1,6.9,3.7,8.4,7.3c0.4,1,1.6,1.5,2.6,1.2c0.8-0.3,1.7-0.5,2.6-0.5
			c4.7,0,8.4,3.8,8.4,8.4c0,1.2,0.9,2.1,2.1,2.1c0,0,0,0,0,0c7,0,12.6,5.6,12.6,12.6c0,0,0,0.2,0,0.3c0,1,0.7,1.9,1.7,2.1
			c4.5,0.9,7.5,5.3,6.6,9.9c-0.5,2.6-2.3,4.9-4.7,6c-0.6,0.3-1,0.8-1.2,1.4c-0.1,0.6,0,1.3,0.4,1.8c2,2.4,1.9,6-0.3,8.3
			c-0.8,0.8-0.8,2.2,0.1,3c0.1,0.1,0.3,0.2,0.4,0.3c5.1,2.8,7,9.2,4.2,14.3c-1.8,3.4-5.4,5.5-9.3,5.5h-67.4
			c-5.8,0-10.5-4.7-10.5-10.5c0-3.1,1.3-6,3.6-8c0.5-0.4,0.8-1.1,0.7-1.8c-0.1-0.7-0.5-1.3-1.1-1.6c-2.6-1.3-3.8-4.3-3-7.1
			c0.3-1.1-0.4-2.3-1.5-2.6c-0.2,0-0.4-0.1-0.5-0.1h-0.1c-0.1,0-0.2,0-0.2,0c-4.7,0-8.4-3.9-8.4-8.5
			C782.2,338,784.2,335,787.4,333.7L787.4,333.7z"/>
		<path class="st1" d="M834.7,318.3c1.2,0,2.1,0.9,2.1,2.1c0,0,0,0.1,0,0.1h4.2c0-1.2,0.9-2.1,2.1-2.1c1.2,0,2.1,0.9,2.1,2.1h4.2
			c0-3.5-2.8-6.3-6.3-6.3c-1.6,0-3.1,0.6-4.3,1.6c-2.6-2.3-6.6-2.1-8.9,0.4c-1,1.2-1.6,2.7-1.6,4.2h4.2
			C832.7,319.3,833.6,318.4,834.7,318.3C834.8,318.4,834.8,318.4,834.7,318.3L834.7,318.3z"/>
		<path class="st1" d="M809.5,324.6c1.2,0,2.1,0.9,2.1,2.1c0,0,0,0,0,0h4.2c0.1-1.2,1.1-2,2.2-2c1.1,0.1,1.9,0.9,2,2h4.2
			c0-3.5-2.8-6.3-6.3-6.3c-1.6,0-3.1,0.6-4.3,1.6c-2.6-2.3-6.5-2.2-8.9,0.4c-1.1,1.2-1.6,2.7-1.6,4.3h4.2
			C807.4,325.6,808.3,324.6,809.5,324.6L809.5,324.6z"/>
		<path class="st1" d="M815.8,333.1h4.2c0.1-1.2,1.1-2,2.2-2c1.1,0.1,1.9,0.9,2,2h4.2c0.1-1.2,1.1-2,2.2-2c1.1,0.1,1.9,0.9,2,2h4.2
			c0-3.5-2.8-6.3-6.3-6.3c-1.6,0-3.1,0.6-4.3,1.6c-2.6-2.3-6.6-2.1-8.9,0.4C816.4,330,815.8,331.5,815.8,333.1L815.8,333.1z"/>
		<path class="st1" d="M853.7,339.4c0-1.2,0.9-2.1,2.1-2.1c1.2,0,2.1,0.9,2.1,2.1l0,0h4.2c0-1.2,0.9-2.1,2.1-2.1s2.1,0.9,2.1,2.1
			l0,0h4.2c0-3.5-2.8-6.3-6.3-6.3c-1.6,0-3.1,0.6-4.3,1.6c-2.6-2.3-6.6-2.1-8.9,0.4c-1,1.2-1.6,2.7-1.6,4.2H853.7z"/>
		<path class="st1" d="M809.5,345.7c1.2,0,2.1,0.9,2.1,2.1c0,0,0,0,0,0h4.2c0.1-1.2,1.1-2,2.2-2c1.1,0.1,1.9,0.9,2,2h4.2
			c0-3.5-2.8-6.3-6.3-6.3c-1.6,0-3.1,0.6-4.3,1.6c-2.6-2.3-6.5-2.2-8.9,0.4c-1.1,1.2-1.6,2.7-1.6,4.3h4.2
			C807.4,346.6,808.3,345.7,809.5,345.7L809.5,345.7z"/>
		<path class="st1" d="M855.8,352c-1.6,0-3.1,0.6-4.2,1.6c-2.6-2.3-6.5-2.2-8.9,0.4c-1.1,1.2-1.6,2.7-1.6,4.3h4.2
			c0-1.2,0.9-2.1,2.1-2.1s2.1,0.9,2.1,2.1l0,0h4.2c0-1.2,0.9-2.1,2.1-2.1c1.2,0,2.1,0.9,2.1,2.1l0,0h4.2
			C862.1,354.8,859.3,352,855.8,352z"/>
		<path class="st1" d="M832.6,358.3c-3.5,0-6.3,2.8-6.3,6.3c0,0,0,0,0,0h4.2c-0.1-1.2,0.8-2.2,2-2.2c1.2-0.1,2.2,0.8,2.2,2
			c0,0.1,0,0.2,0,0.3h4.2c0-1.2,0.9-2.1,2.1-2.1s2.1,0.9,2.1,2.1h4.2c0-3.5-2.8-6.3-6.3-6.3c-1.6,0-3.1,0.6-4.2,1.6
			C835.7,358.9,834.2,358.4,832.6,358.3L832.6,358.3z"/>
		<path class="st1" d="M797.8,373.8c1.6,2.3,4.9,3.5,9.5,3.5h14.7v-4.2h-14.7c-4.2,0-5.6-1.1-6.1-1.7c-0.4-0.6-0.5-1.2-0.3-1.9
			l-2-0.6l-2-0.7C796.4,370.1,796.7,372.2,797.8,373.8z"/>
		<path class="st1" d="M826.4,373.1h4.2v4.2h-4.2V373.1z"/>
		<path class="st1" d="M796.6,332.1c-0.9-2.1-0.9-4.5,0-6.6l-1.9-0.9l-1.9-0.9c-1.5,3.3-1.5,7,0,10.3L796.6,332.1z"/>
		<path class="st1" d="M867.8,366.6c2.8,1,4.7,3.5,4.9,6.4h4.2c0-7.7-7.4-10.3-7.8-10.4L867.8,366.6z"/>
		<path class="st1" d="M864.2,325.5c0.4,0.8,0.5,1.8,0.1,2.6l4,1.3l0,0c0.7-2,0.6-4.2-0.4-6c-1.7-2.6-4.4-4.4-7.4-5.1l-1,4.1l0,0
			C861.4,322.9,863.1,324,864.2,325.5L864.2,325.5z"/>
	</g>
	<text transform="matrix(1 0 0 1 463.717 479.8523)" class="st1 st6 st7">Pfefferkörner</text>
	<text transform="matrix(1 0 0 1 463.717 730.7898)" class="st1 st6 st7">Zitronenschale</text>
	<text transform="matrix(1 0 0 1 769.155 730.7898)" class="st1 st6 st7">Süssholz</text>
	<text transform="matrix(1 0 0 1 769.155 479.8523)" class="st1 st6 st7">Lindenblüte</text>
</g>
</svg>
