<svg id="Ebene_1" data-name="Ebene 1" xmlns="http://www.w3.org/2000/svg" viewBox="0 0 716 630.67"><defs><style>.cls-1{fill:#fbf5e0;}.cls-2{fill:#1f2b33;}</style></defs><ellipse class="cls-1" cx="358" cy="315.34" rx="358" ry="315.34"/><path class="cls-2" d="M278,263.67c-10.82,0-20.4,6.66-23.69,16.48L219.61,383.09a31.7,31.7,0,0,0,2.15,25.21A34.29,34.29,0,0,0,242,424.68l34.68,10.65,0,46.23H343v-17a2.58,2.58,0,0,1,4.28-1.91,2.38,2.38,0,0,1,.85,1.81v17.13h67V326.41l41.74,26.67a40.76,40.76,0,0,0,47.26-2.56c13.37-10.85,17.58-28.84,10.33-44.09l-29.78-62.54a2.41,2.41,0,0,0,1.88-2.81l-7.71-38.47a2.57,2.57,0,0,0-3-1.94l-64.48,11.81a36.64,36.64,0,0,0-24.93,17l-10.08,1.85v-4.71a15.5,15.5,0,0,0,12.82-15V200a2.33,2.33,0,0,0-.76-1.72,2.54,2.54,0,0,0-1.8-.73H366.68L361.31,195h0A24.11,24.11,0,0,0,351,192.74c-12.88,0-23.33,10-23.35,22.28v16.83a9.77,9.77,0,0,0,5.13,8.47v23.35ZM366.44,423,355.13,451.8h0a2.61,2.61,0,0,1-3.19,1.47L243.54,420h0a29.14,29.14,0,0,1-17.2-13.92,27,27,0,0,1-1.84-21.48l21.87-64.93L285,331.27,267.5,387.82a2.45,2.45,0,0,0,1.72,3l75.6,21.93a2.62,2.62,0,0,0,2.54-.61L356,404h0a3,3,0,0,1,.18,3l0,.06-3.23,6.44a2.34,2.34,0,0,0,0,2.05A2.56,2.56,0,0,0,354.5,417l10.26,2.84h0a2.53,2.53,0,0,1,1.58,1.26,2.24,2.24,0,0,1,.09,1.94Zm-89.79-47.47v12.35l-3.52-1Zm160-142a4.1,4.1,0,0,1,3.06,0,3.9,3.9,0,0,1,2.17,2.07l2,4.55h0a2.6,2.6,0,0,0,1.6,1.41l4,1.2h0a6.12,6.12,0,0,1,4.26,4.38,2.57,2.57,0,0,0,3,1.86l22.76-4.17,30.28,63.6a31.61,31.61,0,0,1-9,38.32A35.42,35.42,0,0,1,459.7,349l-32.79-20.95,21.36-28.54L472.21,317h0a2.69,2.69,0,0,0,3.18,0,2.37,2.37,0,0,0,.7-3l-32.69-66h0l-7.16-14.21ZM374.09,251.7l16.18-3h0a37.65,37.65,0,0,0,22.8,7.63h0a36.43,36.43,0,0,0,7-.63l19.72-3.61L466.92,307l-48.23-35.25a42.55,42.55,0,0,0-24.95-8.06H361v-4.9a15.6,15.6,0,0,0,13.14-7.07ZM337.9,226.92a5.2,5.2,0,0,1,4.36,2.3,2.53,2.53,0,0,0,1.9,1.12,2.64,2.64,0,0,0,2.1-.72,15.12,15.12,0,0,0,4.54-9.37l16.92,5.8h0a15.13,15.13,0,0,0,3.48.77v5.47l-1.33.24h0a2.6,2.6,0,0,0-1.63,1,2.33,2.33,0,0,0-.39,1.83L370.37,248h0a10.32,10.32,0,0,1-9.41,5.93,23.8,23.8,0,0,1-13.85-4.41,2.65,2.65,0,0,0-3.59.49,2.39,2.39,0,0,0,.52,3.43,29,29,0,0,0,11.79,4.94v11.46a9,9,0,0,1-17.95,0v-31a2.47,2.47,0,0,0-1.69-2.31,4.89,4.89,0,0,1-3.36-5.46,5.08,5.08,0,0,1,5.08-4.08Zm9,56.33c7.79,0,14.1-6,14.1-13.46v-1.23h32.79a37.2,37.2,0,0,1,21.83,7.06l28.62,20.91-21.54,28.79-7.54-4.82V298a2.57,2.57,0,0,0-5.13,0V405.63H361.59a8,8,0,0,0-4.61-7.08,2.64,2.64,0,0,0-3,.45l-9.18,8.66-63.08-18.29V359l20.08-64.82a2.42,2.42,0,0,0-1.73-3,2.58,2.58,0,0,0-3.19,1.65l-10.46,33.8L247.93,315l11.23-33.35h0A19.66,19.66,0,0,1,278,268.56h54.77v1.22c0,7.43,6.32,13.45,14.1,13.46Z" transform="translate(-1.5 -24.66)"/></svg>