<?xml version="1.0" encoding="utf-8"?>
<!-- Generator: Adobe Illustrator 25.2.3, SVG Export Plug-In . SVG Version: 6.00 Build 0)  -->
<svg version="1.1" id="Ebene_1" xmlns="http://www.w3.org/2000/svg" xmlns:xlink="http://www.w3.org/1999/xlink" x="0px" y="0px"
	 viewBox="0 0 126 138" style="enable-background:new 0 0 126 138;" xml:space="preserve">
<style type="text/css">
	.st0{fill:#2F424C;}
</style>
<path class="st0" d="M58.7,43.1c-1.2,0-2.2-1-2.2-2.2s1-2.2,2.2-2.2c2.4,0,4.3-1.9,4.3-4.3c0-1.2,1-2.2,2.2-2.2s2.2,1,2.2,2.2
	C67.3,39.3,63.5,43.1,58.7,43.1z"/>
<path class="st0" d="M65.2,25.9c-1.2,0-2.2-1-2.2-2.2c0-3.6,2.9-6.5,6.5-6.5c1.2,0,2.2,1,2.2,2.2s-1,2.2-2.2,2.2s-2.2,1-2.2,2.2
	C67.3,24.9,66.4,25.9,65.2,25.9z"/>
<path class="st0" d="M114.8,25.9c-1.2,0-2.2-1-2.2-2.2s-1-2.2-2.2-2.2s-2.2-1-2.2-2.2s1-2.2,2.2-2.2c3.6,0,6.5,2.9,6.5,6.5
	C116.9,24.9,116,25.9,114.8,25.9z"/>
<path class="st0" d="M76,21.6c-1.2,0-2.2-1-2.2-2.2V6.5c0-1.2,1-2.2,2.2-2.2s2.2,1,2.2,2.2v12.9C78.1,20.6,77.2,21.6,76,21.6z"/>
<path class="st0" d="M121.2,43.1c-4.8,0-8.6-3.9-8.6-8.6c0-1.2,1-2.2,2.2-2.2s2.2,1,2.2,2.2c0,2.4,1.9,4.3,4.3,4.3
	c1.2,0,2.2,1,2.2,2.2C123.4,42.2,122.4,43.1,121.2,43.1z"/>
<path class="st0" d="M104,21.6c-1.2,0-2.2-1-2.2-2.2V6.5c0-1.2,1-2.2,2.2-2.2s2.2,1,2.2,2.2v12.9C106.1,20.6,105.2,21.6,104,21.6z"
	/>
<path class="st0" d="M110.5,21.6h-41c-1.2,0-2.2-1-2.2-2.2s1-2.2,2.2-2.2h41c1.2,0,2.2,1,2.2,2.2S111.7,21.6,110.5,21.6z"/>
<path class="st0" d="M99.7,4.3H80.3c-1.2,0-2.2-1-2.2-2.2s1-2.2,2.2-2.2h19.4c1.2,0,2.2,1,2.2,2.2C101.8,3.3,100.9,4.3,99.7,4.3z"/>
<path class="st0" d="M65.2,133.7c-1.1,0-2.1-0.9-2.1-2l-6.5-90.6c-0.1-1.2,0.8-2.2,2-2.3s2.2,0.8,2.3,2l6.5,90.6
	c0.1,1.2-0.8,2.2-2,2.3C65.3,133.7,65.2,133.7,65.2,133.7L65.2,133.7z"/>
<path class="st0" d="M114.8,133.7c0,0-0.1,0-0.2,0c-1.2-0.1-2.1-1.1-2-2.3l6.5-90.6c0.1-1.2,1.1-2.1,2.3-2c1.2,0.1,2.1,1.1,2,2.3
	l-6.5,90.6C116.8,132.8,115.9,133.7,114.8,133.7L114.8,133.7z"/>
<path class="st0" d="M69.5,138c-3.6,0-6.5-2.9-6.5-6.5c0-1.2,1-2.2,2.2-2.2s2.2,1,2.2,2.2s1,2.2,2.2,2.2s2.2,1,2.2,2.2
	C71.7,137,70.7,138,69.5,138z"/>
<path class="st0" d="M13.4,138c-3.6,0-6.5-2.9-6.5-6.5c0-1.2,1-2.2,2.2-2.2s2.2,1,2.2,2.2s1,2.2,2.2,2.2s2.2,1,2.2,2.2
	C15.6,137,14.6,138,13.4,138z"/>
<path class="st0" d="M43.6,138c-1.2,0-2.2-1-2.2-2.2s1-2.2,2.2-2.2s2.2-1,2.2-2.2s1-2.2,2.2-2.2s2.2,1,2.2,2.2
	C50.1,135.1,47.2,138,43.6,138z"/>
<path class="st0" d="M110.5,138c-1.2,0-2.2-1-2.2-2.2s1-2.2,2.2-2.2s2.2-1,2.2-2.2s1-2.2,2.2-2.2s2.2,1,2.2,2.2
	C116.9,135.1,114,138,110.5,138z"/>
<path class="st0" d="M110.5,138h-41c-1.2,0-2.2-1-2.2-2.2s1-2.2,2.2-2.2h41c1.2,0,2.2,1,2.2,2.2C112.6,137,111.6,138,110.5,138z"/>
<path class="st0" d="M65.2,36.7c-1.2,0-2.2-1-2.2-2.2V23.7c0-1.2,1-2.2,2.2-2.2c1.2,0,2.2,1,2.2,2.2v10.8
	C67.3,35.7,66.4,36.7,65.2,36.7z"/>
<path class="st0" d="M114.8,36.7c-1.2,0-2.2-1-2.2-2.2V23.7c0-1.2,1-2.2,2.2-2.2s2.2,1,2.2,2.2v10.8C116.9,35.7,116,36.7,114.8,36.7
	z"/>
<path class="st0" d="M123.4,43.1H56.5c-1.2,0-2.2-1-2.2-2.2s1-2.2,2.2-2.2h66.8c1.2,0,2.2,1,2.2,2.2
	C125.5,42.2,124.6,43.1,123.4,43.1z"/>
<path class="st0" d="M76,8.6c-1.2,0-2.2-1-2.2-2.2c0-3.6,2.9-6.5,6.5-6.5c1.2,0,2.2,1,2.2,2.2s-1,2.2-2.2,2.2s-2.2,1-2.2,2.2
	C78.1,7.7,77.2,8.6,76,8.6z"/>
<path class="st0" d="M104,8.6c-1.2,0-2.2-1-2.2-2.2s-1-2.2-2.2-2.2s-2.2-1-2.2-2.2s1-2.2,2.2-2.2c3.6,0,6.5,2.9,6.5,6.5
	C106.1,7.7,105.2,8.6,104,8.6z"/>
<path class="st0" d="M104,12.9H76c-1.2,0-2.2-1-2.2-2.2s1-2.2,2.2-2.2h28c1.2,0,2.2,1,2.2,2.2C106.1,12,105.2,12.9,104,12.9z"/>
<path class="st0" d="M115.1,129.4H64.9c-1.2,0-2.2-1-2.2-2.2s1-2.2,2.2-2.2h50.2c1.2,0,2.2,1,2.2,2.2
	C117.2,128.4,116.3,129.4,115.1,129.4z"/>
<path class="st0" d="M43.6,138H13.4c-1.2,0-2.2-1-2.2-2.2s1-2.2,2.2-2.2h30.2c1.2,0,2.2,1,2.2,2.2S44.8,138,43.6,138L43.6,138z"/>
<path class="st0" d="M47.9,133.7c-1.2,0-2.2-1-2.2-2.2V56c0-1.2,1-2.2,2.2-2.2s2.2,1,2.2,2.2v75.5C50.1,132.7,49.1,133.7,47.9,133.7
	z"/>
<path class="st0" d="M9.1,133.7c-1.2,0-2.2-1-2.2-2.2V56c0-1.2,1-2.2,2.2-2.2s2.2,1,2.2,2.2v75.5C11.2,132.7,10.3,133.7,9.1,133.7z"
	/>
<path class="st0" d="M47.9,58.2H9.1c-1.2,0-2.2-1-2.2-2.2s1-2.2,2.2-2.2h38.8c1.2,0,2.2,1,2.2,2.2C50.1,57.2,49.1,58.2,47.9,58.2z"
	/>
<path class="st0" d="M47.9,129.4H9.1c-1.2,0-2.2-1-2.2-2.2s1-2.2,2.2-2.2h38.8c1.2,0,2.2,1,2.2,2.2
	C50.1,128.4,49.1,129.4,47.9,129.4z"/>
<path class="st0" d="M47.9,69H9.1c-1.2,0-2.2-1-2.2-2.2s1-2.2,2.2-2.2h38.8c1.2,0,2.2,1,2.2,2.2C50.1,68,49.1,69,47.9,69z"/>
<path class="st0" d="M43.6,125.1c-0.8,0-1.6-0.5-2-1.3l-41-90.6c-0.5-1.1,0-2.4,1.1-2.9s2.4,0,2.9,1.1l41,90.6
	c0.5,1.1,0,2.4-1.1,2.9C44.2,125,43.9,125.1,43.6,125.1L43.6,125.1z"/>
</svg>
