<?xml version="1.0" encoding="utf-8"?>
<!-- Generator: Adobe Illustrator 25.2.3, SVG Export Plug-In . SVG Version: 6.00 Build 0)  -->
<svg version="1.1" id="Ebene_1" xmlns="http://www.w3.org/2000/svg" xmlns:xlink="http://www.w3.org/1999/xlink" x="0px" y="0px"
	 viewBox="0 0 133 91" style="enable-background:new 0 0 133 91;" xml:space="preserve">
<style type="text/css">
	.st0{fill:#2F424C;}
</style>
<path class="st0" d="M17,28.9c-8,11-10.2,25-5.7,35.4c0.4,0.8,1,1.2,1.8,1.2c0.2,0,0.6,0,0.8-0.2c1-0.4,1.4-1.6,1-2.7
	c-3.9-9.2-1.8-21.5,5.3-31.5c0.6-0.8,0.4-2.3-0.4-2.9C18.8,27.7,17.6,27.9,17,28.9L17,28.9z"/>
<path class="st0" d="M111.7,29.5v-0.6c-0.2-2-1.2-3.9-2.9-4.9c-3.5-2.5-7.4-3.9-11.5-4.7c-2.3-0.4-4.5,0.4-5.9,1.8
	c-1.4-1.4-3.7-2.3-5.9-1.8c-4.1,0.8-8,2.5-11.5,4.7c-1.6,1-2.7,2.9-2.9,4.9v0.6c-2.3,0-4.3,1.2-5.5,3.1c-2.3,3.5-3.9,7.4-4.7,11.5
	c-0.4,2,0.2,4.1,1.4,5.5l0.4,0.4c-0.2,0.2-0.2,0.2-0.4,0.4c-1.2,1.6-1.8,3.7-1.4,5.5c0.8,4.1,2.5,8,4.7,11.5
	c1.2,1.8,3.3,2.9,5.5,2.9v0.6c0.2,2,1.2,3.9,2.9,4.9c3.5,2.5,7.4,3.9,11.5,4.7c0.4,0,0.8,0.2,1.2,0.2c1.8,0,3.5-0.8,4.7-1.8
	c1.2,1.2,2.9,1.8,4.7,1.8c0.4,0,0.8,0,1.2-0.2c4.1-0.8,8-2.5,11.5-4.7c1.6-1,2.7-2.9,2.9-4.9v-0.6c2.3,0,4.3-1.2,5.5-3.1
	c2.3-3.5,3.9-7.4,4.7-11.5c0.4-2-0.2-3.9-1.4-5.5c-0.2-0.2-0.2-0.2-0.4-0.4l0.4-0.4c1.2-1.6,1.8-3.7,1.4-5.5
	c-0.8-4.1-2.5-8-4.7-11.5C116,30.6,114,29.5,111.7,29.5L111.7,29.5z M96.6,23.2c3.5,0.6,7,2,10,4.1c0.6,0.4,1,1.2,1.2,1.8
	c0,0.8-0.2,1.6-0.8,2L95.6,42.6c-0.6-0.4-1.4-0.6-2-0.8V25.7C93.5,24.2,94.7,23,96.6,23.2L96.6,23.2z M91.5,54.1
	c-2.3,0-4.1-1.8-4.1-4.1s1.8-4.1,4.1-4.1s4.1,1.8,4.1,4.1C95.5,52.3,93.5,54.1,91.5,54.1z M76.1,27.5c3.1-2,6.3-3.5,10-4.1h0.6
	c1.4,0,2.7,1.2,2.7,2.7v16.2c-0.8,0.2-1.4,0.4-2,0.8L75.9,31.6c-0.6-0.6-0.8-1.2-0.8-2C75.1,28.5,75.5,27.9,76.1,27.5L76.1,27.5z
	 M64.7,44.7c0.6-3.7,2-7,4.1-10c0.4-0.8,1.2-1.2,2.3-1.2c0.6,0,1.4,0.2,1.8,0.8c0.4,0.4,12.1,12.3,11.5,11.5c-0.4,0.6-0.6,1.4-0.8,2
	H67.3c-0.8,0-1.4-0.4-2-1C64.7,46.3,64.5,45.5,64.7,44.7L64.7,44.7z M69,65.1c-2-3.1-3.5-6.3-4.1-10c-0.2-0.8,0-1.6,0.6-2.3
	c0.4-0.6,1.2-1,2-1h16.2c0.2,0.8,0.4,1.4,0.8,2C80,58.4,73.9,64.5,73,65.3C71.8,66.6,69.8,66.4,69,65.1L69,65.1z M86.8,76.6h-0.4
	c-3.7-0.6-7-2-10-4.1c-1.4-0.8-1.6-2.9-0.4-4.1c0.2-0.2,1.8-1.8,1.6-1.6l9.8-9.8c0.6,0.4,1.4,0.6,2,0.8v12.1v4.3
	C89.2,75.6,88.2,76.6,86.8,76.6L86.8,76.6z M106.6,72.5c-3.1,2-6.3,3.5-10,4.1c-1.6,0.4-3.1-0.8-3.1-2.5v-0.2v-1.8V58
	c0.8-0.2,1.4-0.4,2-0.8L107,68.6c0.6,0.6,0.8,1.2,0.6,2C107.6,71.3,107.2,71.9,106.6,72.5L106.6,72.5z M117.4,52.9
	c0.4,0.6,0.6,1.4,0.6,2.3c-0.6,3.7-2,7-4.1,10c-0.8,1.2-2.9,1.4-3.9,0.4L98.6,54.1c0.4-0.6,0.6-1.4,0.8-2h16.2
	C116.2,52,117,52.3,117.4,52.9L117.4,52.9z M117.4,46.9c-0.4,0.6-1.2,1-2,1H99.2c-0.2-0.8-0.4-1.4-0.8-2l11.5-11.5
	c1-1,3.1-0.8,4.1,0.4c2,3.1,3.5,6.3,4.1,10C118.2,45.5,118,46.3,117.4,46.9L117.4,46.9z"/>
<path class="st0" d="M91.2,9.3c-5.9,0-11.7,1.4-17,3.9c0.2-1.2,0.4-2,0.6-3.1c1-6.1-5.1-11.2-10.8-9C60.4,2.3,56.5,5,49.3,4.4
	C18.8,2.1-8.2,38.8,3.9,67.2C8.2,77.4,2.7,82.9,7.8,88c2.7,2.7,6.5,3.3,9.6,1.6c2.5-1,5.9-4.3,12.1-3.7C39.7,87,51,83.1,60,75.8
	c7.4,9.4,18.6,14.9,31.5,14.9c22.5,0,40.7-18.2,40.7-40.7C132,27.5,113.7,9.3,91.2,9.3L91.2,9.3z M57.5,72.3
	c-8.2,7-18.4,10.4-27.6,9.6C22.3,81.1,18.2,85,15.8,86c-2.7,1.4-6.1-0.4-5.9-3.9c0-0.8,0-1.6,0.2-2.7c0.2-3.3,0.6-8-2-13.9
	C-2.8,39.8,21.7,6.2,49.1,8.3C57.3,8.9,62,5.8,65.5,4.8c2.9-1,5.9,1.4,5.3,4.5C70.4,12,70,13.6,70,15.4
	C49.9,28.1,45.2,53.7,57.5,72.3L57.5,72.3z M91.5,86.4c-18,0-31.1-11.7-35.2-27c-1-3.5-1.4-6.8-1.4-10.2c0.4-21.3,18-36,36.4-36
	c17.6,0,36.6,13.9,36.6,36.6C127.9,70,111.5,86.4,91.5,86.4L91.5,86.4z"/>
</svg>
